<svg xmlns="http://www.w3.org/2000/svg" xml:space="preserve" width="192" height="192" data-version="2">
    <path fill="#f49ace" d="M39.06 143.98V36.18h24.95q12.62 0 18.94 6.78 6.31 6.77 6.31 19.86v10.63q0 13.09-6.31 19.86-6.32 6.78-18.94 6.78H56v43.89zM56 84.69h8.01q4.15 0 6.23-2.31t2.08-7.85V61.74q0-5.54-2.08-7.85-2.08-2.31-6.23-2.31H56z" paint-order="stroke"/>
    <path fill="#f49ace" d="M82.95 143.98V36.18h24.18l10.78 77.15h.3l10.78-77.15h24.18v107.8h-16.01V62.36h-.31l-12.32 81.62h-14.17L98.04 62.36h-.31v81.62z" paint-order="stroke"/>
</svg>
