<svg xmlns="http://www.w3.org/2000/svg" version="1.1" xmlns:xlink="http://www.w3.org/1999/xlink" width="500" height="571" viewBox="750 0 500 571"><svg xml:space="preserve" width="2000" height="571" data-version="2" data-id="lg_08HVG7il8RbPKep6KX" viewBox="0 0 499 571" x="0" y="0"><rect width="100%" height="100%" fill="transparent"></rect><path fill="#fd597b" d="M106.676 369.255a25.34 21.148 0 0 1 7.475 1.974c1.774.705 2.745 1.233 2.745 1.233q2.45 1.058 4.646 2.115 2.787-.282 5.49-.352a357.687 357.687 0 0 0-7.94-4.476l-.591-.423a71.796 59.918 0 0 1-6.504-5.358 38.01 31.721 0 0 1-5.068-6.097 25.34 21.148 0 0 1-1.731-3.666q-.676-1.868-.76-3.983a29.563 24.672 0 0 0-1.14-6.837q-1.014-2.68-2.324-4.23c-1.689-1.974-3.21-2.608-3.21-2.608s-.844.423-1.224 1.34q-.422.916.127 2.431a50.68 42.295 0 0 0-7.18-8.142 38.01 31.721 0 0 0-5.913-3.877s-.422.317-.506.846v.564q-.634-.705-1.69-1.55a18.16 15.156 0 0 0-9.713-4.09s-.254.283-.212.776c.043.494.423 1.163 1.605 1.974l-1.056-.6a21.117 17.623 0 0 0-7.348-2.29c-2.238-.282-4.139-.67-6.166-.74 0 0-1.056 3.277 1.52 6.309q1.436 1.656 4.773 3.7l-1.394-.458-3.379-1.269a29.563 24.672 0 0 1-8.024-4.44 12.67 10.574 0 0 0-5.406-2.468 16.893 14.098 0 0 0-3.674-.564 38.01 31.721 0 0 0-4.054-.176l-1.69.106s0 1.374 1.14 2.96q.845 1.164 2.661 2.362t5.026 1.938l-2.45-.458q-1.182-.211-2.702-.352a33.786 28.197 0 0 0-7.011-.106q-1.943.211-3.717.564a12.67 10.574 0 0 0-6.081 2.89s.169.6 1.098 1.128q.718.388 2.111.67l1.605.14h2.112s-.76.036-1.858.177a33.786 28.197 0 0 0-6.335 1.621q-1.14.423-2.027 1.058-1.943 1.127-2.365 2.82l.506.14q.423.141 1.267.282 1.436.353 3.337.07l-1.31.318q-1.9.388-4.476 1.41c-3.294 1.374-6.589 3.736-7.01 6.59l1.35.67q1.268.564 3.717 1.305l2.576.704q1.394.353 3.041.564 1.605.282 3.379.423 1.9.106 3.885.141s-.676.106-1.562.353-1.985.81-2.872 1.586c0 0 .591.775 2.238 1.48 1.69.74 4.35 1.445 8.658 1.622 0 0-.972.14-1.9.634-.93.493-1.774 1.41-1.521 2.996 0 0 1.436.564 3.548.564q1.604.07 3.716-.423 1.816-.458 3.97-1.621c-.465.317-1.267.845-1.985 1.55q-1.014.881-1.69 2.115-.675 1.234-.633 2.714l1.9.035c1.056 0 2.366-.282 3.38-.916l-.676 1.974s1.351.282 3.294.211q1.478 0 3.336-.352 1.858-.353 3.928-1.304.971-.53 1.985-.776.971-.317 1.816-.458 1.774-.352 3.083-.247a8.447 7.05 0 0 1 2.534.353l.169.035-1.098.106q-1.014.105-2.492.387t-2.703.952q-1.225.67-1.816 1.586c-1.351 2.573-3.21 2.855-3.21 2.855l.845.247q.802.211 2.112.423c1.689.211 3.8.352 5.49-.494 0 0-1.69.81-2.112 2.256l.972.352q.844.247 2.322.53c1.859.246 4.308.246 6.589-1.093 0 0-.465.281-.93.916s-.844 1.516-.675 2.714q.042.07 1.9.317l2.07.176q1.182.106 2.534.106c3.674.035 8.108-.458 11.234-2.925q2.872-2.362 5.828-3.736a24.495 20.443 0 0 1 16.47-2.503m202.888-7.402-.127-.599c-1.858-20.795-22.805-29.783-22.805-29.783l-11.826-5.216-6.42-2.502a67.573 56.394 0 0 0-22.594-6.697 70.107 58.508 0 0 0-51.566 9.27q-6.715 3.736-11.91 8.705c2.66-10.785 9.84-31.122 26.607-38.347l.084.105s17.316-8.987 35.054 2.397c7.18 4.617 20.736-.458 20.736-.458a4.223 3.525 0 0 0-1.563-2.89c2.661.352 5.533.14 7.771-.423 2.45-.635 4.688-2.22 7.391-1.657-1.013-1.022-2.323-2.009-3.885-2.256 2.111-.423 4.012-.775 5.997-1.691 1.14-.53 2.914-1.622 3.42-2.644-2.407.952-6.123-.705-8.361-1.445l-4.097-1.516q2.45-.352 5.786-.07a19.85 16.566 0 0 0 12.839-2.608l-1.69-1.622c2.914.423 6.546-1.62 6.546-1.62a7.18 5.992 0 0 0-3.505-2.82q3.252-.388 6.082-1.41c1.562-.564 3.167-1.163 4.392-2.186q.929-.846 1.774-1.762c-1.267 0-2.534-.916-3.548-1.41-.718-.352-1.605-1.057-2.407-1.057q4.054-1.41 6.208-4.512 1.014-1.374 1.605-2.82.253-.88.718-1.515c-2.238.705-4.603.705-6.926.952 7.94-5.146 9.502-11.455 9.502-11.455-4.857-3.208-13.599-.705-15.964.106 2.365-.952 3.379-2.855 3.379-2.855-4.012-3.208-13.093.599-13.093.599 4.857-2.15 3.717-4.476 3.717-4.476-8.024-2.291-17.991 5.322-17.991 5.322 5.828-4.3 2.618-9.34 2.618-9.34s-7.728 2.326-9.376 6.943a16.893 14.098 0 0 1-3.843 5.357q0-1.762-.422-3.348l-1.014-2.89c-.295-.81-1.013-1.48-1.267-2.256-.253.705-2.28 1.41-3.167 1.762a33.786 28.197 0 0 0-7.01 3.701c.126-.951-.465-1.445-.465-1.445a15.626 13.041 0 0 0-7.856 6.944 2.534 2.115 0 0 0-.844-1.41c-4.477 3.56-7.56 9.869-8.87 12.97.55-2.678-1.689-3.736-1.689-3.736s-5.237 2.679-4.307 13.958c.76 9.939-10.939 17.482-13.726 19.138-19.892 8.142-27.367 31.757-29.817 42.648.127-4.37-.042-8.741-.38-12.548-.422-4.828-1.69-17.623-5.49-34.999v-1.375c.042-.423 3.716-25.764 10.685-48.956l1.182-3.736c2.915-9.059 6.335-17.553 10.22-23.791 0 0 5.069-6.662 8.996-9.235q.634-.352.93-.705c1.985-1.55 6.757-4.547 8.869-.67a33.786 28.197 0 0 0 5.405 8.354q1.774-1.586 2.365-2.855c.634 6.168 8.025 14.345 8.025 14.345 2.491-.916 2.66-3.7 2.534-5.04.887 4.265 9.29 9.622 9.29 9.622 1.395-.81.592-4.864.592-4.864a19.85 16.566 0 0 0 12.67 6.45 19.005 15.86 0 0 0-3.04-11.807c2.026.775 4.687.81 6.419 1.832 0-.775.422-1.48.549-2.22q.21-1.586-.423-2.96a16.893 14.098 0 0 0-2.871-3.49q-.676-.634-1.394-1.198c2.323.282 6.166 1.62 8.53 7.084 3.59 8.177 11.066 7.578 11.066 7.578 2.576-2.644-.718-6.239-.718-6.239 8.362 7.05 15.668 3.877 15.668 3.877s-2.45-2.326-1.984-8.177c.337-4.23-5.913-8.106-9.418-10.01 4.012 1.128 9.29-.634 9.29-.634s-1.266-1.762-3.505-3.525a21.117 17.623 0 0 0-5.405-3.524c-2.028-.917-4.181-1.48-6.25-2.256q-1.268-.458-2.535-1.057l-.802-.635c5.068.564 8.869-1.762 8.869-1.762-38.306-22.275-65.293 2.467-65.293 2.467s-10.135 7.402-16.597 15.156c0-6.661 23.481-23.65 25.002-25.307a21.117 17.623 0 0 0 3.8-8.07c.761-4.16-2.026-8.108-1.477-12.196l-3.463 1.48-.972.564c1.014-1.833.338-4.687-.253-6.344-.76-2.291-1.774-4.406-1.943-6.697-1.056.564-2.196 1.27-2.787 2.22-1.352-3.418-2.45-7.366-5.195-10.185 0 2.537-2.07 5.04-3.548 7.12l-.422.81q-.127-1.48-.084-3.172a26.607 22.205 0 0 0-4.393-12.09q-.633-.88-1.14-1.41-1.013-1.233-1.098-1.233l-1.267 1.657a8.447 7.05 0 0 0-1.098-2.468 25.34 21.148 0 0 0-3.59-4.123l-.76-.67c-1.69 1.057-1.605 3.383-1.351 5.393l.59 3.066a21.117 17.623 0 0 0-4.94-7.684 21.117 17.623 0 0 0-6.124-4.088q-1.563-.705-1.647-.67a2.112 1.762 0 0 0-.55 1.762q.296.917.972 1.833.718.881 1.351 1.48l.676.635a29.563 24.672 0 0 0-7.264-3.736 16.893 14.098 0 0 0-4.983-1.163c-2.534-.176-3.506.246-3.506.246 1.014 1.093 2.28 2.01 3.252 2.714l1.267.846.423.318a25.34 21.148 0 0 0-9.08-2.644 21.117 17.623 0 0 0-11.108 1.128l-1.393.6q.38 1.021 1.14 1.867.718.881 1.69 1.657 1.984 1.586 4.096 2.82l3.547 2.114.972.529a6.335 5.287 0 0 0-4.393-.564q.043 1.55 1.056 2.82 1.014 1.339 2.28 2.396l1.183.987 1.014.776.971.705q-.633-.423-1.267-.67-.506-.212-1.056-.317a4.223 3.525 0 0 0-1.604.035c-.845.211-1.225.705-1.225.705.549 2.82 2.618 4.652 4.561 6.238l1.478 1.093q.634.529 1.267.881c.718.529 1.267.846 1.267.846q-1.816-1.057-3.378-1.057-1.69.035-2.872.564-1.267.528-1.9 1.057-.719.458-.719.529 0 .07.423.458.422.493 1.224 1.092c1.056.811 2.619 1.728 4.857 1.939 2.238.212 4.392 1.41 5.87 2.679l.254.246q-1.563-.458-3.125-.775c-2.45-.388-5.153.212-7.518-.282 1.436 1.798 1.943 4.124 3.168 6.062q.675 1.163 1.689 2.115l.676.529a4.223 3.525 0 0 0-1.478-.353c-.465.036-.803.212-.803.212.634 2.22 2.238 3.947 3.717 5.146q.802.67 1.436 1.057h-.634l-.971.247q1.267 1.938 3.125 3.912a84.466 70.492 0 0 0 6.673 6.415 4.223 3.525 0 0 0-2.45-.705c-1.056.035-1.69.458-1.69.458s0 .282.254.776q.338.775 1.436 2.044a29.563 24.672 0 0 0 9.672 6.38c5.321 2.396 8.108 7.754 9.206 12.582.592 2.397.718 7.12.718 7.472-10.77 18.152-17.526 50.614-20.356 66.827-5.66-22.417-15.922-52.552-33.786-78.105 0 0-12.206-16.918 3.843-33.977q.929-1.058 1.478-2.115l1.436-1.622c2.112-2.572 2.914-5.991 2.618-9.093a19.005 15.86 0 0 0-2.111-6.979c-.845-1.198-3.083-2.749-3.337-4.088-.21.88-1.985 1.868-2.66 2.643 1.182-1.762-.676-4.652-1.69-6.097-1.013-1.445-3.927-3.067-3.674-4.9-.802.635-1.858 1.34-2.112 2.291-.675-2.467-2.153-5.639-4.35-7.33 0 2.713-3.463 5.568-5.068 7.789q-.76 1.163-1.098 2.326a21.117 17.623 0 0 1 0-5.181 23.228 19.385 0 0 0-3.463-12.442l-2.28 1.586c.675-2.82-2.112-6.344-2.112-6.344-4.223 1.515-5.406 6.238-5.744 7.895a17.738 14.803 0 0 0-5.279-12.689c-4.223 1.48-2.196 5.71-2.196 5.71-6.124-8.459-11.445-8.388-11.445-8.388-.422 2.713.887 5.286.887 5.286a30.408 25.377 0 0 0-17.822-11.63c-4.562 4.652-1.14 13.146-.085 15.472-1.225-2.29-3.885-3.313-3.885-3.313-4.52 3.842.675 12.689.675 12.689-2.956-4.723-6.166-3.666-6.166-3.666-3.294 7.754 7.18 17.482 7.18 17.482-5.913-5.675-12.966-2.643-12.966-2.643s3.126 7.542 9.545 9.199c6.42 1.692 12.036 7.824 12.036 7.824-9.755-5.639-14.063-.916-14.063-.916a16.893 14.098 0 0 0 7.053 9.94c-2.66-1.41-4.012-.177-4.012-.177a18.16 15.156 0 0 0 9.587 7.649 2.956 2.467 0 0 0-1.943.81c4.857 4.37 13.514 7.402 17.907 8.812-3.717-.6-5.237 1.586-5.237 1.586s3.716 5.04 19.427 4.3c15.71-.74 27.367 13.922 27.367 13.922a219.612 183.28 0 0 1 8.362 13.252l-6.124-6.555s-24.495-26.505-64.87-6.908a12.67 10.574 0 0 0 11.741 1.903s-6.757 3.524-12.5 4.335c-5.787.846-10.094 5.816-10.094 5.816s5.152 2.114 9.29 1.269c-3.716 1.62-10.346 5.11-10.43 9.34-.085 5.886-2.788 8.036-2.788 8.036s5.997 3.066 14.021-1.551c-.169.81-.591 1.762-.633 2.361-.085 1.164.169 2.468-.972 3.349 2.534.775 5.786-.282 8.11-1.093a14.36 11.984 0 0 0 7.897-5.956c1.14-1.939 2.111-4.054 3.674-5.816l.591-.6c2.703-1.057 4.857-.563 4.857-.563s-7.602 5.216-6.377 8.459c0 0 4.56.352 7.348-1.762-1.773 1.656-6.588 6.767-5.532 12.935 0 0 7.348-.106 13.261-5.569 0 0-1.183 3.983.084 4.934 0 0 8.87-4.793 10.179-8.987-.17 1.34-.296 4.088 2.111 5.18 0 0 6.335-5.92 8.658-11.525l.422.459 2.619 2.749c-.211-.776 1.013-1.234 1.647-1.621 1.098-.74 2.238-1.622 3.083-2.609 1.351-1.55 1.985-3.313 2.534-5.18q.253-1.2.802-2.539c2.408-.634 5.28 1.551 6.673 2.82q.211.353.845.776c3.378 2.608 7.348 8.74 7.982 9.692a422.33 352.46 0 0 1 9.967 25.8l2.28 6.909c.085.07 5.195 17.728 6.927 25.518-14.824-7.578-30.704-10.539-30.704-10.539l-.295-.07-.634-.247-2.365-.846a46.456 38.77 0 0 1-7.264-3.63 38.01 31.721 0 0 1-11.825-11.667 42.233 35.246 0 0 1-2.999-7.296 16.893 14.098 0 0 0-4.983-5.992 21.117 17.623 0 0 0-7.813-3.665c-1.267-.388-5.322-.846-5.829-2.08-.718 1.163-1.816 1.904-2.28 3.243a8.447 7.05 0 0 0-.338 1.833 14.782 12.336 0 0 0-6.63-2.045q-2.155-.246-3.633-.176l-1.52.07c-.085 1.34 1.436 2.433 1.774 2.644l-.423-.176a12.67 10.574 0 0 0-3.083-1.057h-.126a21.117 17.623 0 0 0-3.463-.705c-2.957-.423-5.786-.282-8.405-1.551.718.352 1.056.881 1.563 1.34 0 0 2.07 3.136 2.956 4.334q1.098 1.48 2.788 2.644l-.634-.212-2.45-1.057q-2.576-1.269-5.32-1.762-2.704-.494-4.984-.529c-3.041 0-5.153.353-5.153.353l.972 1.973a10.558 8.812 0 0 0-5.237-.564l-2.154.212-.845.14q.17 1.481 1.394 2.574 1.14 1.128 2.618 1.903a19.82 19.82 0 0 0 3.041 1.41 18.583 15.508 0 0 0-11.276-.81c-3.125.669-4.941 1.656-4.941 1.656.295 1.55 1.773 2.185 3.167 2.432 1.436.211 2.745.07 2.745.07a22.383 18.68 0 0 0-10.262 4.477c-1.605 1.41-1.816 2.361-1.816 2.361 1.52.247 2.956.176 4.138.176 1.14-.07 1.9-.211 1.9-.211q-2.322.67-4.18 1.586-1.9.916-3.337 1.868a29.563 24.672 0 0 0-4.392 3.983q-1.478 1.938-1.985 3.137l-.464 1.198c2.83 1.903 6.715 1.938 10.009 1.797q2.45-.176 4.181-.422l1.098-.177a6.335 5.287 0 0 0-3.463 2.256q1.31 1.269 3.21 1.727.929.212 1.9.282l.971.07h.93q1.942 0 3.21-.21l1.393-.142q-.845.141-1.478.388l-1.056.528a4.223 3.525 0 0 0-1.14 1.164c-.423.705-.254 1.304-.254 1.304 3.168 1.868 6.842 1.586 10.01 1.092q1.013-.176 1.942-.423l-.338.388q-.675 1.057-.971 2.256c-.38 1.128-1.014 4.476-2.45 4.864 2.535.035 4.773.211 7.265-.564q2.365-.81 4.307-2.185c1.267-.882 2.872-1.692 3.928-2.68-2.238 1.27-1.69 4.935-2.703 6.768 3.252-.564 7.053.81 10.22-.14-.295.669-.422 1.585-1.055 2.114 1.858-.212 3.885-.317 5.786-.776 1.267-.352 3.505-.986 4.096-2.009-.126.987.507 1.763 1.225 2.468.169-1.41 3.167-2.186 4.392-2.679a33.786 28.197 0 0 0 6.757-3.348q1.014-.705 1.817-1.727l1.309-.705q-1.225 1.057-1.436 2.044c-.254.952 0 1.656 0 1.656s1.351.141 3.59-.845q1.689-.705 4.096-2.468 2.365-1.691 5.364-4.934a16.893 14.098 0 0 1 7.475-4.512 25.34 21.148 0 0 1 8.573-1.374 33.786 28.197 0 0 1 9.123.846c.506.105 5.068.599 7.306 1.163q-2.154.176-4.561.705a38.01 31.721 0 0 0-13.937 5.992 42.233 35.246 0 0 0-11.403 11.983 48.99 40.885 0 0 0-.591 35.458q1.098 1.903 2.323 3.771l1.267 1.833a101.36 84.59 0 0 0 4.645 5.287s.887-.81 1.478-2.08a8.447 7.05 0 0 0 .423-3.595l-.085-.211q.845.493 1.858.88c.803.353 3.548 1.058 3.675 1.869 0-.987.169-1.903.169-2.89 0-.917.253-2.256-.423-3.032 1.014 0 1.943-.246 2.957-.281-.296-.882.169-1.939 0-2.89a9.714 8.107 0 0 0-2.619-4.195q1.774.212 3.548.247c.929.035 2.196.035 2.998.423.127-2.467-2.83-4.406-4.688-5.922 2.239.282 3.97-1.057 5.702-2.114-.971 0-2.112-1.939-2.619-2.503l-.042-.035a8.447 7.05 0 0 0 3.463-.529c-3.04-1.515-2.534-4.793-3.252-7.366q-.59-2.08-1.731-3.948.718.529 1.478.917c3.167 1.656 6.968 1.691 10.22 3.101.085-1.41-.549-3.383-1.689-4.44.845.563 1.943.458 2.787.986-.506-.775-.422-1.762-.76-2.608-.422-1.269-1.267-2.185-1.985-3.243.76.67 1.9.459 2.577 1.199-.254-.458.21-.74.422-1.163.338-.67.295-1.41.38-2.115a12.67 10.574 0 0 0-.422-3.701c.675.529 1.689.775 2.534 1.057-.634-.74-.296-1.268.21-1.973.803-1.163 1.183-2.115 1.352-3.454q.17-1.058.085-2.115c0-.776-.423-1.41-.507-2.15q-.211-1.27.169-2.256 1.267-1.093 3.97-1.586c.295 0 8.193 2.326 17.273 7.014 1.858 9.093 3.125 16.953 3.885 22.84.845 6.872 2.45 25.87-1.816 38.981a84.466 70.492 0 0 0-3.547 14.592 101.36 84.59 0 0 0 1.52 25.377 395.465 395.465 0 0 1 2.027 10.01l-4.476-8.071s-14.57-26.61-53.552-17.341l-3.8.211c1.097.881 1.815 1.833 3.04 2.609q1.69 1.127 3.632 1.55c-2.787 0-5.66-.211-8.362.459q-2.787.775-5.49 1.832c-1.478.529-3.717 1.375-5.364.952 1.056.705 1.858 1.516 2.999 2.15 1.14.634 2.534 1.516 3.8 1.868-2.533.07-4.687 1.692-6.039 3.384q-.633.81-1.056 1.656-.422.635-.717 1.41c-1.52 5.075-4.393 6.52-4.393 6.52s4.055 3.349 11.403 1.41l-.844 1.798c-.254.81-.718 2.467-1.605 2.784 1.942.177 3.59.705 5.617.635a16.893 14.098 0 0 0 6.588-1.762q1.605-.67 3.04-1.48 1.268-.811 2.155-1.763c-.507 1.304-1.267 3.595-2.745 4.37 2.787-.07 5.532-.07 8.277-.528a16.893 14.098 0 0 0-5.49 8.67s6.42 1.163 12.923-2.608c0 0-1.985 3.278-1.14 4.3 0 0 5.997-1.798 9.291-4.335-.042.493-.127.951.127 1.55.591 1.164 1.098 2.08.971 3.384 0-.352 1.647-.81 2.112-1.057a29.563 24.672 0 0 0 7.729-5.428c.717-.634 1.816-1.516 2.111-2.362-.084.53 1.014 1.692 1.352 2.186-.085-.776.718-1.058 1.436-1.445 1.351-.67 2.83-1.41 3.8-2.468q1.52-1.797 2.534-3.877l.803-1.092c2.872-1.833 5.617 1.374 6.757 2.996q.127.352.507.81c1.69 2.115 3.21 5.992 4.054 8.213l.93 5.639s3.716 17.764 2.069 28.373h6.673l-2.45-18.61a418.107 348.935 0 0 0-3.083-20.09c1.352-2.467 3.463-6.626 4.181-7.402l1.52-1.762a21.117 17.623 0 0 1 4.857-3.807 21.117 17.623 0 0 1 19.765-2.044l.972.141.253.106c1.9.634 3.97.634 5.997.352a14.36 11.984 0 0 0 5.913-1.903c1.267-.775 2.703-1.903 4.434-1.48-.295-1.128-1.267-2.468-2.702-2.75 1.351.423 3.378 0 4.645-.458 1.056-.352 2.534-1.198 3.674-.705a5.49 4.582 0 0 0-4.012-3.137 9.291 7.754 0 0 0 6.04-2.643c.295-.282.59-.705.971-.846-.887.353-2.534-.07-3.42-.282-.846-.247-1.69-.705-2.577-.81 2.07.458 4.899-.106 6.884-.67 1.436-.353 3.167-1.692 4.688-1.622-.887-.458-1.859-1.445-2.957-1.762 1.098-.247 2.07-.176 3.083-.705l1.563-1.057c.296-.247.507-.635.845-.846-1.985 0-3.294-.916-4.942-1.586q-.97-.458-2.027-.846 1.014 0 1.816-.106 1.859-.246 3.041-.81c1.605-.635 2.45-1.48 2.45-1.48a2.956 2.467 0 0 0-2.45-1.834c-.93-.105-1.732.106-1.732.106 3.21-1.445 4.942-2.82 5.913-3.877.971-1.057 1.056-1.833 1.056-1.833a6.757 5.64 0 0 0-4.223-.14q1.52-.6 2.871-1.27a25.34 21.148 0 0 0 4.477-2.713l1.69-1.34a21.117 17.623 0 0 0 2.956-3.066c-1.563-2.044-5.11-2.855-8.236-2.855q-2.365-.035-4.054.247l-1.098.176q1.52-.423 2.492-1.058l.844-.634.296-.247q-1.056-1.163-2.999-1.445a12.67 10.574 0 0 0-3.927-.105q.422-.459.76-.987.718-1.445.718-3.067c-.76.846-3.083.353-4.097.282a25.34 21.148 0 0 0-4.139-.106c-1.52.071-3.21.106-4.645.423-.634.141-2.45.705-2.492 1.305.085-1.128-.127-2.291-.253-3.42l-.211-1.41c-.085-.352-.296-.74-.254-1.057 0 .635-1.52 1.199-2.111 1.48l-2.872 1.516c-2.365 1.304-4.646 2.538-6.335 4.512-1.31 1.515-1.943 3.207-2.957 4.864a8.447 7.05 0 0 1-1.478 1.762l.296-.881c.633-3.066-1.605-5.287-1.605-5.287-1.52.705-2.787 1.55-4.35 2.467a21.117 17.623 0 0 0-4.646 3.983l-.506.775c.549-.986.506-1.62.337-1.973a1.427 1.191 0 0 0-.506-.529 16.893 14.098 0 0 0-6.25 7.79l-.212-.459-.76-.493a12.67 10.574 0 0 0-1.563 2.29 29.563 24.672 0 0 0-2.66 7.367q-.423 2.115-.507 3.525a4.223 3.525 0 0 0-.972-1.868c-.718-.6-1.52-.67-1.52-.67s-.887.952-1.267 2.996q-.338 1.586 0 3.912.422 2.362 2.154 5.604.845 1.586 1.225 3.278.337 1.622.253 3.313a33.786 28.197 0 0 1-1.225 6.204 54.903 45.82 0 0 1-2.618 6.062l-.254.529-2.365 3.348a308.3 257.296 0 0 0-4.012-17.447 105.583 88.115 0 0 1-.929-13.323l.296-5.04.126-1.198c2.07-17.623 10.728-30.735 25.72-39.018a65.039 54.279 0 0 1 48.4-8.74 71.796 59.918 0 0 1 17.188 4.44c2.66 1.058 4.435 1.516 4.435 1.516 1.816.705 3.632 1.48 4.899 2.256q.59.352 1.056.528c2.153 1.164 8.277 3.525 2.871 6.697-5.068 2.89-7.94 6.344-7.94 6.344q2.197.917 3.802 1.058c-6.758 2.08-14.064 9.798-14.064 9.798 1.69 1.727 4.814 1.163 6.25.776-4.519 1.762-8.446 9.586-8.446 9.586 1.267.846 5.617-.74 5.617-.74-5.195 5.604-4.055 11.455-4.055 11.455a16.893 14.098 0 0 0 8.447-2.467l-.296.916c-.126 1.375.212 2.82-.59 4.054 1.604-.353 3.336-.141 4.983-.564q1.647-.423 3.21-1.199c-1.268 1.41-3.084 2.468-4.224 4.018a12.67 10.574 0 0 0-1.436 6.803c.042 1.057.338 1.762.338 1.762 3.59 1.375 6.757-2.114 6.757-2.114-5.786 8.282-.422 13.182-.422 13.182s1.351-1.657 5.49-2.855c1.31-.212 2.703-.282 4.012-.67q2.534-.67 4.562-1.974c.97-.634 2.956-1.938 2.871-3.137 1.098 1.48 2.492 2.432 4.14 3.525 0-.67 1.604-1.798 2.11-2.397q1.268-1.48 2.155-3.172c1.267-2.115 1.985-4.688 1.985-7.05.844.952 3.125 2.362 1.942 4.019.254-.458 1.479-.705 2.028-1.058q1.351-.74 2.238-1.868c1.774-2.185 5.28-7.33 2.745-20.02"></path><path fill="#fd597b" d="M306.603 226.672a16.017 19.208 90 0 0-5.667 1.495c-1.344.534-2.08.934-2.08.934q-1.857.801-3.522 1.602-2.113-.214-4.162-.267c3.17-1.842 6.019-3.39 6.019-3.39l.448-.32a45.382 54.424 90 0 0 4.93-4.058 24.026 28.813 90 0 0 3.842-4.619 16.017 19.208 90 0 0 1.312-2.776q.513-1.415.577-3.016a18.687 22.41 90 0 1 .864-5.18q.768-2.028 1.76-3.203c1.281-1.494 2.434-1.975 2.434-1.975s.64.32.928 1.014q.32.694-.096 1.842a32.034 38.417 90 0 1 5.443-6.166 24.026 28.813 90 0 1 4.482-2.937s.32.24.384.641v.427q.48-.534 1.28-1.174a11.479 13.766 90 0 1 7.364-3.097s.192.214.16.587c-.032.374-.32.881-1.217 1.495l.8-.454a13.347 16.007 90 0 1 5.57-1.735c1.698-.213 3.138-.507 4.675-.56 0 0 .8 2.482-1.153 4.778q-1.088 1.255-3.617 2.803l1.056-.347 2.561-.961a18.687 22.41 90 0 0 6.083-3.364 8.009 9.604 90 0 1 4.098-1.868 10.678 12.806 90 0 1 2.785-.427 24.026 28.813 90 0 1 3.073-.134l1.281.08s0 1.041-.864 2.243q-.64.88-2.017 1.788t-3.81 1.468l1.857-.347q.896-.16 2.049-.267a21.356 25.611 90 0 1 5.314-.08q1.473.16 2.817.427a8.009 9.604 90 0 1 4.61 2.19s-.128.453-.832.854q-.544.293-1.6.507l-1.217.107h-1.601s.576.026 1.409.133a21.356 25.611 90 0 1 4.802 1.228q.864.32 1.536.8 1.473.855 1.793 2.137l-.384.106q-.32.107-.96.214-1.089.267-2.53.053l.993.24q1.44.294 3.393 1.068c2.498 1.041 4.995 2.83 5.315 4.992l-1.025.507q-.96.428-2.817.988l-1.953.534q-1.056.267-2.305.427-1.216.214-2.56.32-1.442.08-2.946.107s.512.08 1.184.267 1.505.614 2.177 1.202c0 0-.448.587-1.696 1.12-1.281.561-3.298 1.095-6.563 1.229 0 0 .736.106 1.44.48.705.374 1.345 1.068 1.153 2.27 0 0-1.089.426-2.69.426q-1.216.054-2.817-.32-1.376-.347-3.009-1.228c.352.24.96.64 1.505 1.175q.768.667 1.28 1.601.513.935.48 2.056l-1.44.027c-.8 0-1.793-.214-2.561-.694l.512 1.494s-1.024.214-2.497.16q-1.12 0-2.53-.266-1.408-.267-2.977-.988-.736-.4-1.504-.587-.736-.24-1.377-.347-1.344-.267-2.337-.187a5.339 6.403 90 0 0-1.92.267l-.129.026.833.08q.768.08 1.888.294t2.05.72q.928.508 1.376 1.202c1.024 1.949 2.433 2.162 2.433 2.162l-.64.187q-.608.16-1.6.32c-1.281.16-2.882.268-4.163-.373 0 0 1.28.614 1.601 1.708l-.736.267q-.64.187-1.761.4c-1.409.188-3.266.188-4.994-.827 0 0 .352.214.704.694s.64 1.148.512 2.056q-.032.053-1.44.24l-1.57.134q-.895.08-1.92.08c-2.785.026-6.147-.347-8.516-2.216q-2.177-1.789-4.418-2.83a15.483 18.568 90 0 0-12.485-1.895m-153.795-5.606.096-.454c1.408-15.75 17.287-22.557 17.287-22.557l8.964-3.95 4.866-1.896a42.712 51.222 90 0 1 17.128-5.072 44.314 53.143 90 0 1 39.089 7.02q5.09 2.83 9.028 6.594c-2.017-8.169-7.46-23.572-20.169-29.044l-.064.08s-13.126-6.807-26.572 1.815c-5.442 3.497-15.718-.347-15.718-.347a2.67 3.201 90 0 1 1.184-2.189c-2.017.267-4.194.107-5.89-.32-1.857-.48-3.554-1.682-5.603-1.255.768-.774 1.76-1.521 2.945-1.708-1.6-.32-3.041-.588-4.546-1.282-.864-.4-2.209-1.228-2.593-2.002 1.825.721 4.642-.534 6.339-1.094l3.105-1.148q-1.856-.267-4.386-.053a12.547 15.047 90 0 1-9.732-1.976l1.28-1.228c-2.208.32-4.961-1.228-4.961-1.228a4.538 5.442 90 0 1 2.657-2.135q-2.465-.294-4.61-1.068c-1.185-.427-2.401-.881-3.33-1.655q-.704-.641-1.344-1.335c.96 0 1.92-.694 2.689-1.068.544-.267 1.216-.8 1.825-.8q-3.074-1.069-4.706-3.418-.769-1.04-1.217-2.135-.192-.668-.544-1.148c1.697.534 3.49.534 5.25.72-6.019-3.897-7.203-8.675-7.203-8.675 3.682-2.43 10.308-.534 12.101.08-1.793-.721-2.56-2.162-2.56-2.162 3.04-2.43 9.923.453 9.923.453-3.681-1.628-2.817-3.39-2.817-3.39 6.083-1.735 13.638 4.031 13.638 4.031-4.418-3.257-1.985-7.074-1.985-7.074s5.859 1.762 7.107 5.259a10.678 12.806 90 0 0 2.914 4.057q0-1.334.32-2.536l.768-2.189c.224-.614.768-1.12.96-1.708.193.534 1.73 1.068 2.402 1.335a21.356 25.611 90 0 1 5.314 2.803c-.096-.721.352-1.095.352-1.095a9.877 11.845 90 0 1 5.955 5.259 1.602 1.92 90 0 1 .64-1.068c3.393 2.696 5.73 7.475 6.723 9.824-.416-2.029 1.28-2.83 1.28-2.83s3.97 2.03 3.266 10.572c-.576 7.528 8.292 13.24 10.404 14.495 15.08 6.166 20.746 24.052 22.602 32.3a82.55 82.55 0 0 1 .288-9.503c.32-3.657 1.281-13.347 4.162-26.508v-1.04c-.032-.321-2.817-19.515-8.1-37.08l-.896-2.83c-2.209-6.86-4.802-13.294-7.747-18.019 0 0-3.842-5.045-6.819-6.994q-.48-.267-.704-.534c-1.505-1.175-5.123-3.444-6.723-.507a21.356 25.611 90 0 1-4.098 6.327q-1.345-1.202-1.793-2.163c-.48 4.672-6.082 10.865-6.082 10.865-1.89-.694-2.017-2.803-1.921-3.817-.673 3.23-7.043 7.288-7.043 7.288-1.057-.614-.449-3.684-.449-3.684a12.547 15.047 90 0 1-9.604 4.885 12.013 14.406 90 0 1 2.305-8.943c-1.536.587-3.553.614-4.866 1.388 0-.587-.32-1.121-.416-1.682q-.16-1.201.32-2.242a10.678 12.806 90 0 1 2.177-2.643q.512-.48 1.056-.908c-1.76.214-4.674 1.228-6.466 5.366-2.722 6.193-8.388 5.74-8.388 5.74-1.953-2.003.544-4.725.544-4.725-6.339 5.339-11.877 2.936-11.877 2.936s1.857-1.762 1.505-6.193c-.256-3.204 4.482-6.14 7.139-7.582-3.042.855-7.043-.48-7.043-.48s.96-1.335 2.657-2.67a13.347 16.007 90 0 1 4.098-2.67c1.536-.693 3.169-1.12 4.738-1.708q.96-.347 1.92-.8l.609-.48c-3.842.426-6.723-1.336-6.723-1.336 29.037-16.87 49.494 1.869 49.494 1.869s7.683 5.606 12.581 11.479c0-5.046-17.8-17.913-18.952-19.167a13.347 16.007 90 0 1-2.882-6.113c-.576-3.15 1.537-6.14 1.121-9.237l2.625 1.121.736.428c-.768-1.389-.256-3.55.193-4.806.576-1.735 1.344-3.336 1.472-5.072.8.427 1.665.961 2.113 1.682 1.025-2.59 1.857-5.58 3.938-7.715 0 1.922 1.569 3.818 2.689 5.393l.32.614q.096-1.122.064-2.403a16.818 20.169 90 0 1 3.33-9.156q.48-.668.864-1.068.768-.934.832-.934l.96 1.254a5.339 6.403 90 0 1 .833-1.868 16.017 19.208 90 0 1 2.721-3.124l.577-.507c1.28.8 1.216 2.563 1.024 4.084l-.448 2.323a13.347 16.007 90 0 1 3.745-5.82 13.347 16.007 90 0 1 4.643-3.096q1.184-.534 1.248-.507a1.335 1.6 90 0 1 .416 1.334q-.224.694-.736 1.388-.544.668-1.025 1.122l-.512.48a18.687 22.41 90 0 1 5.507-2.83 10.678 12.806 90 0 1 3.777-.88c1.921-.134 2.657.186 2.657.186-.768.828-1.728 1.522-2.465 2.056l-.96.64-.32.24a16.017 19.208 90 0 1 6.883-2.001 13.347 16.007 90 0 1 8.42.854l1.056.454q-.288.774-.864 1.415-.545.667-1.281 1.254-1.505 1.202-3.105 2.136l-2.69 1.602-.736.4a4.004 4.802 90 0 1 3.33-.427q-.032 1.174-.8 2.135-.769 1.015-1.73 1.816l-.896.747-.768.588-.737.533q.48-.32.96-.507.385-.16.801-.24a2.67 3.201 90 0 1 1.217.027c.64.16.928.534.928.534-.416 2.135-1.985 3.523-3.457 4.725l-1.12.827q-.481.4-.961.667c-.544.4-.96.641-.96.641q1.376-.8 2.56-.8 1.281.026 2.177.426.96.4 1.441.801.544.347.544.4 0 .054-.32.348-.32.373-.928.827c-.8.614-1.985 1.308-3.682 1.469-1.697.16-3.33 1.067-4.45 2.028l-.192.187q1.185-.347 2.37-.587c1.856-.294 3.905.16 5.698-.214-1.089 1.362-1.473 3.124-2.401 4.592q-.513.88-1.281 1.602l-.512.4a2.67 3.201 90 0 1 1.12-.267c.352.027.609.16.609.16-.48 1.682-1.697 2.99-2.818 3.898q-.608.507-1.088.8h.48l.736.187q-.96 1.469-2.369 2.964a53.39 64.028 90 0 1-5.058 4.858 2.67 3.201 90 0 1 1.857-.534c.8.027 1.28.347 1.28.347s0 .214-.192.587q-.256.588-1.088 1.549a18.687 22.41 90 0 1-7.331 4.832c-4.034 1.815-6.147 5.872-6.98 9.53-.448 1.815-.544 5.392-.544 5.659 8.164 13.748 13.286 38.334 15.431 50.614 4.29-16.978 12.07-39.802 25.611-59.156 0 0 9.252-12.814-2.913-25.734q-.704-.801-1.12-1.602l-1.089-1.228c-1.6-1.949-2.209-4.538-1.985-6.887a12.013 14.406 90 0 1 1.601-5.286c.64-.908 2.337-2.082 2.53-3.097.16.668 1.504 1.415 2.016 2.003-.896-1.335.512-3.524 1.28-4.619.769-1.094 2.978-2.322 2.786-3.71.608.48 1.408 1.014 1.6 1.735.513-1.869 1.633-4.271 3.298-5.553 0 2.056 2.625 4.218 3.842 5.9q.576.88.832 1.762a13.347 16.007 90 0 0 0-3.924 14.682 17.608 90 0 1 2.625-9.424l1.729 1.202c-.512-2.136 1.6-4.806 1.6-4.806 3.202 1.148 4.098 4.725 4.354 5.98a11.212 13.446 90 0 1 4.002-9.61c3.202 1.121 1.665 4.325 1.665 4.325 4.642-6.407 8.676-6.354 8.676-6.354.32 2.056-.673 4.004-.673 4.004a19.22 23.05 90 0 1 13.51-8.809c3.458 3.524.865 9.957.064 11.72.929-1.736 2.946-2.51 2.946-2.51 3.425 2.91-.513 9.61-.513 9.61 2.241-3.577 4.674-2.776 4.674-2.776 2.498 5.873-5.442 13.24-5.442 13.24 4.482-4.297 9.828-2.002 9.828-2.002s-2.369 5.713-7.235 6.968c-4.866 1.281-9.124 5.926-9.124 5.926 7.395-4.271 10.66-.694 10.66-.694a10.678 12.806 90 0 1-5.345 7.528c2.016-1.068 3.04-.134 3.04-.134a11.479 13.766 90 0 1-7.266 5.793 1.869 2.241 90 0 1 1.472.614c-3.681 3.31-10.244 5.606-13.574 6.674 2.818-.454 3.97 1.201 3.97 1.201s-2.817 3.818-14.726 3.257c-11.91-.56-20.745 10.545-20.745 10.545a138.814 166.473 90 0 0-6.34 10.037l4.643-4.965s18.568-20.075 49.173-5.233a8.009 9.604 90 0 1-8.9 1.442s5.123 2.67 9.477 3.283c4.386.641 7.651 4.405 7.651 4.405s-3.906 1.602-7.043.961c2.817 1.228 7.843 3.87 7.907 7.074.064 4.458 2.113 6.087 2.113 6.087s-4.546 2.322-10.628-1.175c.128.614.448 1.335.48 1.789.064.88-.128 1.868.736 2.536-1.92.587-4.386-.214-6.147-.828a9.076 10.885 90 0 1-5.986-4.511c-.864-1.468-1.6-3.07-2.785-4.405l-.449-.454c-2.048-.8-3.681-.427-3.681-.427s5.762 3.951 4.834 6.407c0 0-3.458.267-5.57-1.335 1.344 1.255 4.994 5.126 4.193 9.797 0 0-5.57-.08-10.052-4.218 0 0 .896 3.017-.064 3.738 0 0-6.723-3.63-7.715-6.807.128 1.014.224 3.096-1.601 3.924 0 0-4.802-4.485-6.563-8.73l-.32.347-1.985 2.083c.16-.588-.768-.935-1.249-1.228-.832-.56-1.696-1.228-2.337-1.976-1.024-1.174-1.504-2.509-1.92-3.924q-.192-.907-.609-1.922c-1.824-.48-4.001 1.175-5.058 2.136q-.16.267-.64.587c-2.561 1.975-5.57 6.62-6.05 7.341a266.95 320.14 90 0 0-7.556 19.54l-1.729 5.233c-.064.053-3.938 13.428-5.25 19.327 11.237-5.74 23.274-7.982 23.274-7.982l.224-.053.48-.187 1.793-.64a29.365 35.215 90 0 0 5.507-2.75 24.026 28.813 90 0 0 8.963-8.836 26.695 32.014 90 0 0 2.273-5.526 10.678 12.806 90 0 1 3.778-4.538 13.347 16.007 90 0 1 5.923-2.776c.96-.294 4.033-.641 4.418-1.575.544.88 1.376 1.441 1.728 2.456a5.339 6.403 90 0 1 .256 1.388 9.343 11.205 90 0 1 5.027-1.549q1.632-.187 2.753-.133l1.152.053c.064 1.015-1.088 1.842-1.344 2.002l.32-.133a8.009 9.604 90 0 1 2.337-.8h.096a13.347 16.007 90 0 1 2.625-.535c2.241-.32 4.386-.213 6.37-1.174-.543.267-.8.667-1.184 1.014 0 0-1.568 2.376-2.24 3.283q-.833 1.122-2.114 2.003l.48-.16 1.858-.801q1.952-.961 4.033-1.335 2.05-.374 3.778-.4c2.305 0 3.906.266 3.906.266l-.737 1.495a6.674 8.004 90 0 1 3.97-.427l1.633.16.64.107q-.128 1.121-1.056 1.949-.865.854-1.985 1.441a15.03 15.03 0 0 1-2.305 1.068 11.746 14.086 90 0 1 8.547-.614c2.37.507 3.746 1.255 3.746 1.255-.224 1.174-1.345 1.655-2.401 1.842-1.088.16-2.08.053-2.08.053a14.148 16.967 90 0 1 7.779 3.39c1.216 1.068 1.376 1.789 1.376 1.789-1.152.187-2.24.134-3.137.134-.865-.054-1.44-.16-1.44-.16q1.76.507 3.169 1.2 1.44.695 2.529 1.415a18.687 22.41 90 0 1 3.33 3.017q1.12 1.468 1.504 2.376l.352.907c-2.145 1.442-5.09 1.469-7.587 1.362q-1.857-.134-3.17-.32l-.832-.134a4.004 4.802 90 0 1 2.625 1.709q-.992.96-2.433 1.308-.704.16-1.44.213l-.737.054h-.704q-1.473 0-2.433-.16l-1.057-.107q.64.106 1.12.293l.801.4a2.67 3.201 90 0 1 .864.882c.32.534.192.987.192.987-2.4 1.415-5.186 1.202-7.587.828q-.768-.134-1.473-.32l.257.293q.512.801.736 1.709c.288.854.768 3.39 1.857 3.684-1.921.026-3.618.16-5.507-.428q-1.792-.614-3.265-1.655c-.96-.667-2.177-1.281-2.977-2.028 1.696.96 1.28 3.737 2.048 5.125-2.465-.427-5.346.614-7.747-.107.224.507.32 1.202.8 1.602-1.408-.16-2.945-.24-4.385-.587-.96-.267-2.658-.748-3.106-1.522.096.747-.384 1.335-.928 1.869-.128-1.068-2.401-1.655-3.33-2.03a21.356 25.611 90 0 1-5.122-2.535q-.768-.534-1.377-1.308l-.992-.534q.928.8 1.088 1.548c.193.72 0 1.255 0 1.255s-1.024.107-2.72-.64q-1.281-.535-3.106-1.87-1.793-1.28-4.066-3.737a10.678 12.806 90 0 0-5.666-3.417 16.017 19.208 90 0 0-6.5-1.04 21.356 25.611 90 0 0-6.914.64c-.384.08-3.842.454-5.539.88q1.633.134 3.458.535a24.026 28.813 90 0 1 10.565 4.538 26.695 32.014 90 0 1 8.643 9.076 30.966 37.136 90 0 1 .449 26.855q-.833 1.442-1.761 2.857l-.96 1.388a64.068 76.834 90 0 1-3.522 4.004s-.673-.614-1.12-1.575a5.339 6.403 90 0 1-.32-2.723l.063-.16q-.64.374-1.408.667c-.609.267-2.69.801-2.786 1.415 0-.747-.128-1.441-.128-2.189 0-.694-.192-1.708.32-2.296-.768 0-1.472-.186-2.24-.213.224-.668-.129-1.468 0-2.19a6.14 7.363 90 0 1 1.984-3.176q-1.344.16-2.689.187c-.704.027-1.665.027-2.273.32-.096-1.868 2.145-3.336 3.554-4.484-1.697.213-3.01-.801-4.322-1.602.736 0 1.6-1.468 1.985-1.895l.032-.027a5.339 6.403 90 0 1-2.625-.4c2.305-1.148 1.92-3.631 2.465-5.58q.448-1.575 1.312-2.99-.544.4-1.12.694c-2.401 1.255-5.283 1.282-7.748 2.35-.064-1.068.416-2.563 1.28-3.364-.64.427-1.472.347-2.112.747.384-.587.32-1.334.576-1.975.32-.961.96-1.655 1.505-2.456-.576.507-1.44.347-1.953.908.192-.347-.16-.56-.32-.881-.256-.507-.224-1.068-.288-1.602a8.009 9.604 90 0 1 .32-2.803c-.512.4-1.28.587-1.921.801.48-.56.224-.961-.16-1.495-.608-.88-.896-1.602-1.024-2.616q-.129-.8-.065-1.602c0-.587.32-1.068.385-1.628q.16-.961-.128-1.709-.96-.827-3.01-1.2c-.224 0-6.21 1.761-13.093 5.311-1.41 6.888-2.37 12.84-2.946 17.299-.64 5.205-1.857 19.594 1.377 29.524a53.39 64.028 90 0 1 2.689 11.052 64.068 76.834 90 0 1-1.152 19.22c-.417 1.923-.96 4.539-1.537 7.582l3.393-6.113s11.045-20.155 40.594-13.134l2.881.16c-.832.667-1.376 1.388-2.305 1.975q-1.28.855-2.753 1.175c2.113 0 4.29-.16 6.339.347q2.113.587 4.162 1.388c1.12.4 2.817 1.041 4.066.721-.8.534-1.41 1.148-2.273 1.628-.865.48-1.921 1.148-2.882 1.415 1.921.054 3.554 1.282 4.578 2.563q.48.614.8 1.255.32.48.545 1.067c1.152 3.844 3.33 4.939 3.33 4.939s-3.074 2.536-8.644 1.068l.64 1.361c.192.614.544 1.869 1.216 2.11-1.472.133-2.72.533-4.258.48a10.678 12.806 90 0 1-4.994-1.335q-1.216-.507-2.305-1.121-.96-.614-1.632-1.335c.384.988.96 2.723 2.08 3.31-2.112-.053-4.193-.053-6.274-.4a10.678 12.806 90 0 1 4.162 6.567s-4.867.88-9.797-1.976c0 0 1.505 2.483.865 3.257 0 0-4.546-1.361-7.043-3.283.032.373.096.72-.096 1.174-.449.881-.833 1.575-.737 2.563 0-.267-1.248-.614-1.6-.801a18.687 22.41 90 0 1-5.859-4.111c-.544-.48-1.377-1.148-1.6-1.789.063.4-.77 1.282-1.025 1.655.064-.587-.544-.8-1.089-1.094-1.024-.507-2.145-1.068-2.88-1.869q-1.153-1.361-1.922-2.936l-.608-.828c-2.177-1.388-4.258 1.041-5.122 2.27q-.096.266-.384.613c-1.281 1.602-2.434 4.539-3.074 6.22l-.704 4.272s-2.817 13.454-1.569 21.489h-5.058l1.857-14.095a264.28 316.939 90 0 1 2.337-15.216c-1.025-1.869-2.625-5.019-3.17-5.606l-1.152-1.335a13.347 16.007 90 0 0-3.682-2.883 13.347 16.007 90 0 0-14.982-1.548l-.737.107-.192.08c-1.44.48-3.009.48-4.546.267a9.076 10.885 90 0 1-4.482-1.442c-.96-.587-2.048-1.441-3.361-1.121.224-.854.96-1.869 2.049-2.082-1.025.32-2.561 0-3.522-.347-.8-.267-1.92-.908-2.785-.534a3.47 4.162 90 0 1 3.041-2.376 5.873 7.043 90 0 1-4.578-2.002c-.224-.214-.448-.534-.736-.64.672.266 1.921-.054 2.593-.214.64-.187 1.28-.534 1.953-.614-1.569.347-3.714-.08-5.218-.508-1.089-.267-2.401-1.281-3.554-1.228.673-.347 1.409-1.094 2.241-1.334-.832-.187-1.568-.134-2.337-.534l-1.184-.801c-.224-.187-.384-.48-.64-.64 1.504 0 2.497-.695 3.745-1.202q.736-.347 1.537-.64-.769 0-1.377-.08-1.408-.188-2.305-.615c-1.216-.48-1.857-1.121-1.857-1.121a1.869 2.241 90 0 1 1.857-1.388 3.98 3.98 0 0 1 1.313.08c-2.433-1.095-3.746-2.136-4.482-2.937-.737-.8-.8-1.388-.8-1.388a4.271 5.122 90 0 1 3.2-.106q-1.152-.454-2.176-.961a16.017 19.208 90 0 1-3.394-2.056l-1.28-1.014a13.347 16.007 90 0 1-2.241-2.323c1.184-1.548 3.874-2.162 6.243-2.162q1.792-.027 3.073.187l.832.133q-1.152-.32-1.889-.8l-.64-.481-.224-.187q.8-.881 2.273-1.095a8.009 9.604 90 0 1 2.977-.08q-.32-.347-.576-.747-.544-1.095-.544-2.323c.576.641 2.337.267 3.105.214a16.017 19.208 90 0 1 3.138-.08c1.152.053 2.433.08 3.521.32.48.107 1.857.534 1.889.988-.064-.854.096-1.735.192-2.59l.16-1.067c.064-.267.224-.56.192-.801 0 .48 1.153.908 1.6 1.121l2.178 1.148c1.793.988 3.521 1.922 4.802 3.417.992 1.148 1.473 2.43 2.24 3.684a5.339 6.403 90 0 0 1.121 1.335l-.224-.668c-.48-2.322 1.217-4.004 1.217-4.004 1.152.534 2.113 1.175 3.297 1.869a13.347 16.007 90 0 1 3.522 3.016l.384.587c-.416-.747-.384-1.227-.256-1.494a.902 1.082 90 0 1 .384-.4 10.678 12.806 90 0 1 4.738 5.899l.16-.347.576-.374a8.009 9.604 90 0 1 1.185 1.735 18.687 22.41 90 0 1 2.017 5.58q.32 1.601.384 2.669a2.67 3.201 90 0 1 .736-1.415c.545-.454 1.153-.507 1.153-.507s.672.72.96 2.269q.256 1.201 0 2.963-.32 1.789-1.632 4.245-.64 1.2-.929 2.482-.256 1.228-.192 2.51a21.356 25.611 90 0 0 .928 4.698 34.704 41.618 90 0 0 1.985 4.591l.192.4 1.793 2.537a194.874 233.702 90 0 1 3.042-13.214 66.738 80.035 90 0 0 .704-10.09l-.224-3.818-.096-.908c-1.569-13.347-8.132-23.278-19.497-29.551a41.11 49.302 90 0 0-36.688-6.62 45.382 54.424 90 0 0-13.03 3.363c-2.016.8-3.361 1.148-3.361 1.148-1.377.534-2.753 1.121-3.714 1.708q-.448.267-.8.4c-1.633.882-6.275 2.67-2.177 5.073 3.842 2.189 6.019 4.805 6.019 4.805q-1.665.694-2.882.8c5.123 1.576 10.661 7.422 10.661 7.422-1.28 1.308-3.65.88-4.738.587 3.425 1.335 6.403 7.261 6.403 7.261-.96.641-4.258-.56-4.258-.56 3.938 4.244 3.073 8.676 3.073 8.676a10.678 12.806 90 0 1-6.403-1.87l.225.695c.096 1.041-.16 2.136.448 3.07-1.217-.267-2.53-.107-3.778-.427q-1.248-.32-2.433-.908c.96 1.068 2.337 1.869 3.201 3.043a8.009 9.604 90 0 1 1.089 5.153c-.032.8-.256 1.334-.256 1.334-2.721 1.041-5.122-1.601-5.122-1.601 4.385 6.273.32 9.984.32 9.984s-1.025-1.255-4.162-2.163c-.993-.16-2.049-.213-3.041-.507q-1.921-.507-3.458-1.495c-.736-.48-2.24-1.468-2.177-2.376-.832 1.121-1.889 1.842-3.137 2.67 0-.507-1.217-1.362-1.601-1.816q-.96-1.12-1.633-2.402c-.96-1.602-1.504-3.55-1.504-5.34-.64.722-2.37 1.79-1.473 3.044-.192-.347-1.12-.534-1.537-.8q-1.024-.561-1.696-1.416c-1.345-1.655-4.002-5.552-2.081-15.162"></path><path fill="#fd597b" d="M328.583 303.502a19.083 15.955 0 0 1 5.63 1.49c1.335.531 2.067.93 2.067.93q1.844.798 3.498 1.595 2.1-.212 4.135-.265c-3.149-1.835-5.98-3.377-5.98-3.377l-.445-.32a54.069 45.205 0 0 1-4.898-4.041 28.624 23.932 0 0 1-3.816-4.6 19.083 15.955 0 0 1-1.304-2.766q-.51-1.41-.573-3.005a22.264 18.614 0 0 0-.859-5.159q-.763-2.02-1.749-3.19c-1.272-1.49-2.417-1.968-2.417-1.968s-.636.319-.922 1.01q-.318.692.095 1.835a38.166 31.91 0 0 0-5.407-6.142 28.624 23.932 0 0 0-4.452-2.925s-.319.239-.382.638v.425q-.477-.532-1.272-1.17a13.676 11.434 0 0 0-7.316-3.084s-.19.212-.159.585c.032.372.319.877 1.21 1.489l-.796-.452a15.903 13.296 0 0 0-5.534-1.729c-1.686-.213-3.117-.505-4.644-.558 0 0-.795 2.473 1.145 4.76q1.082 1.25 3.594 2.792l-1.05-.346-2.544-.957a22.264 18.614 0 0 1-6.043-3.35 9.542 7.977 0 0 0-4.07-1.862 12.722 10.636 0 0 0-2.768-.426 28.624 23.932 0 0 0-3.053-.133l-1.272.08s0 1.037.859 2.234q.636.877 2.003 1.781t3.785 1.463l-1.845-.346q-.89-.16-2.035-.266a25.444 21.273 0 0 0-5.28-.08q-1.463.16-2.799.426a9.542 7.977 0 0 0-4.58 2.18s.128.453.827.851q.541.293 1.59.506l1.21.106h1.59s-.573.027-1.4.133a25.444 21.273 0 0 0-4.77 1.223q-.86.32-1.527.798-1.463.85-1.781 2.127l.381.107q.318.106.954.212 1.082.266 2.513.053l-.986.24q-1.431.292-3.371 1.063c-2.481 1.037-4.962 2.82-5.28 4.973l1.018.505q.954.426 2.799.984l1.94.532q1.05.266 2.29.425 1.208.213 2.544.32 1.431.08 2.926.106s-.509.08-1.177.266-1.494.611-2.162 1.196c0 0 .445.585 1.685 1.117 1.273.558 3.276 1.09 6.52 1.223 0 0-.731.107-1.43.479-.7.372-1.337 1.064-1.146 2.26 0 0 1.082.426 2.672.426q1.208.053 2.799-.32 1.367-.345 2.99-1.223c-.35.24-.955.639-1.496 1.17q-.763.665-1.272 1.596-.509.93-.477 2.047l1.431.027c.796 0 1.781-.213 2.545-.691l-.51 1.489s1.019.212 2.482.16q1.113 0 2.512-.267 1.4-.266 2.958-.984.732-.398 1.495-.585.732-.239 1.368-.345 1.335-.266 2.321-.186a6.361 5.318 0 0 1 1.909.265l.127.027-.827.08q-.763.08-1.877.292t-2.035.718q-.922.506-1.368 1.197c-1.017 1.941-2.417 2.154-2.417 2.154l.636.186q.605.16 1.59.319c1.273.16 2.863.266 4.135-.372 0 0-1.272.611-1.59 1.702l.731.265q.637.187 1.75.4c1.4.185 3.244.185 4.961-.825 0 0-.35.213-.7.691s-.636 1.144-.508 2.048q.032.053 1.43.24l1.56.132q.89.08 1.908.08c2.767.026 6.106-.346 8.46-2.207q2.163-1.782 4.389-2.819a18.447 15.423 0 0 1 12.404-1.888m152.791-5.584-.095-.452c-1.4-15.689-17.175-22.47-17.175-22.47l-8.905-3.935-4.835-1.888a50.888 42.546 0 0 0-17.015-5.052 52.796 44.141 0 0 0-38.834 6.993q-5.057 2.82-8.97 6.568c2.004-8.136 7.411-23.48 20.038-28.93l.063.08s13.04-6.782 26.398 1.807c5.407 3.484 15.617-.345 15.617-.345a3.18 2.66 0 0 0-1.177-2.18c2.004.265 4.166.106 5.852-.32 1.845-.479 3.53-1.675 5.566-1.25-.763-.77-1.75-1.515-2.926-1.701 1.59-.32 3.021-.585 4.516-1.277.859-.399 2.195-1.223 2.576-1.994-1.812.718-4.611-.532-6.297-1.09l-3.085-1.144q1.845-.266 4.357-.053a14.948 12.498 0 0 0 9.669-1.968l-1.272-1.223c2.194.32 4.93-1.223 4.93-1.223a5.407 4.52 0 0 0-2.64-2.127q2.449-.293 4.58-1.064c1.176-.425 2.385-.878 3.307-1.649q.7-.638 1.336-1.33c-.954 0-1.908-.69-2.671-1.063-.541-.266-1.21-.798-1.813-.798q3.053-1.063 4.675-3.403.763-1.037 1.209-2.128.19-.664.54-1.143c-1.685.532-3.466.532-5.216.718 5.98-3.882 7.156-8.642 7.156-8.642-3.657-2.42-10.24-.532-12.022.08 1.781-.718 2.544-2.154 2.544-2.154-3.021-2.42-9.86.452-9.86.452 3.659-1.622 2.8-3.377 2.8-3.377-6.043-1.729-13.55 4.015-13.55 4.015 4.39-3.244 1.973-7.047 1.973-7.047s-5.82 1.755-7.061 5.239a12.722 10.636 0 0 1-2.894 4.042q0-1.33-.318-2.526l-.764-2.18c-.222-.612-.763-1.118-.954-1.703-.19.532-1.717 1.064-2.385 1.33a25.444 21.273 0 0 0-5.28 2.792c.096-.718-.35-1.09-.35-1.09a11.768 9.839 0 0 0-5.915 5.238 1.908 1.595 0 0 0-.636-1.064c-3.372 2.686-5.694 7.446-6.68 9.786.414-2.021-1.272-2.819-1.272-2.819s-3.943 2.021-3.244 10.53c.573 7.499-8.237 13.19-10.336 14.44-14.98 6.142-20.61 23.958-22.455 32.174a82.445 82.445 0 0 0-.286-9.466c-.318-3.643-1.272-13.296-4.135-26.405v-1.037c.032-.32 2.8-19.438 8.047-36.935l.89-2.819c2.195-6.833 4.771-13.242 7.697-17.948 0 0 3.817-5.026 6.775-6.967q.477-.266.7-.532c1.494-1.17 5.088-3.43 6.679-.505a25.444 21.273 0 0 0 4.07 6.302q1.336-1.197 1.782-2.154c.477 4.653 6.043 10.822 6.043 10.822 1.876-.691 2.003-2.792 1.908-3.802.668 3.217 6.997 7.26 6.997 7.26 1.05-.612.445-3.67.445-3.67a14.948 12.498 0 0 0 9.542 4.866 14.312 11.966 0 0 0-2.29-8.908c1.527.585 3.53.611 4.834 1.383 0-.585.318-1.117.414-1.676q.159-1.196-.318-2.233a12.722 10.636 0 0 0-2.163-2.633q-.509-.478-1.05-.904c1.75.213 4.644 1.223 6.425 5.345 2.703 6.169 8.333 5.717 8.333 5.717 1.94-1.994-.54-4.707-.54-4.707 6.297 5.319 11.799 2.925 11.799 2.925s-1.845-1.755-1.495-6.169c.254-3.19-4.453-6.116-7.093-7.552 3.022.851 6.998-.478 6.998-.478s-.955-1.33-2.64-2.66a15.903 13.296 0 0 0-4.071-2.658c-1.527-.692-3.149-1.117-4.707-1.702q-.955-.346-1.909-.798l-.604-.479c3.817.426 6.68-1.33 6.68-1.33-28.848-16.805-49.171 1.862-49.171 1.862s-7.634 5.584-12.5 11.434c0-5.025 17.684-17.842 18.829-19.092a15.903 13.296 0 0 0 2.862-6.09c.573-3.137-1.526-6.115-1.113-9.2l-2.608 1.117-.732.425c.764-1.382.255-3.536-.19-4.786-.573-1.728-1.336-3.324-1.463-5.052-.796.425-1.654.957-2.1 1.675-1.017-2.58-1.844-5.558-3.912-7.685 0 1.915-1.558 3.803-2.671 5.372l-.318.611q-.096-1.117-.064-2.393a20.037 16.752 0 0 0-3.308-9.12q-.477-.666-.858-1.064-.764-.931-.827-.931l-.954 1.25a6.361 5.318 0 0 0-.827-1.862 19.083 15.955 0 0 0-2.704-3.11l-.572-.506c-1.272.798-1.209 2.553-1.018 4.068l.445 2.314a15.903 13.296 0 0 0-3.72-5.797 15.903 13.296 0 0 0-4.613-3.085q-1.176-.531-1.24-.505a1.59 1.33 0 0 0-.413 1.33q.222.691.731 1.382.54.665 1.018 1.117l.509.479a22.264 18.614 0 0 0-5.47-2.819 12.722 10.636 0 0 0-3.754-.877c-1.908-.133-2.64.186-2.64.186.764.824 1.718 1.516 2.45 2.047l.954.639.318.239a19.083 15.955 0 0 0-6.838-1.994 15.903 13.296 0 0 0-8.365.85l-1.05.453q.287.77.859 1.409.54.665 1.272 1.25 1.495 1.196 3.085 2.127l2.672 1.595.731.4a4.77 3.989 0 0 0-3.307-.426q.032 1.17.795 2.127.763 1.01 1.717 1.808l.89.745.764.585.732.532q-.477-.32-.954-.506-.382-.16-.796-.239a3.18 2.66 0 0 0-1.208.027c-.636.16-.923.532-.923.532.414 2.127 1.972 3.51 3.435 4.706l1.114.824q.477.4.954.665c.54.4.954.638.954.638q-1.368-.797-2.545-.797-1.272.026-2.162.425-.954.399-1.431.798-.541.346-.541.399 0 .053.318.345.318.373.922.825c.795.611 1.972 1.303 3.658 1.462 1.685.16 3.308 1.064 4.42 2.021l.192.186q-1.177-.345-2.354-.585c-1.845-.292-3.88.16-5.661-.212 1.081 1.356 1.463 3.11 2.385 4.573q.509.878 1.272 1.596l.51.399a3.18 2.66 0 0 0-1.114-.266c-.35.026-.604.16-.604.16.477 1.674 1.685 2.977 2.798 3.881q.605.506 1.082.798h-.477l-.732.186q.954 1.463 2.354 2.952a63.61 53.182 0 0 0 5.025 4.84 3.18 2.66 0 0 0-1.845-.532c-.795.026-1.272.345-1.272.345s0 .213.191.585q.254.585 1.081 1.543a22.264 18.614 0 0 0 7.284 4.813c4.007 1.808 6.106 5.85 6.933 9.493.445 1.808.54 5.371.54 5.637-8.11 13.694-13.198 38.185-15.33 50.416-4.261-16.911-11.99-39.647-25.443-58.925 0 0-9.192-12.764 2.894-25.634q.7-.798 1.113-1.595l1.082-1.224c1.59-1.94 2.194-4.52 1.972-6.86a14.312 11.966 0 0 0-1.59-5.265c-.637-.904-2.322-2.074-2.513-3.085-.16.665-1.495 1.41-2.004 1.995.89-1.33-.509-3.51-1.272-4.6-.764-1.09-2.958-2.314-2.767-3.697-.605.479-1.4 1.01-1.59 1.729-.51-1.862-1.623-4.255-3.276-5.531 0 2.047-2.608 4.201-3.817 5.876q-.572.878-.827 1.755a15.903 13.296 0 0 1 0-3.908 17.493 14.625 0 0 0-2.608-9.387l-1.717 1.196c.508-2.127-1.59-4.786-1.59-4.786-3.181 1.144-4.072 4.707-4.326 5.956a13.358 11.168 0 0 0-3.976-9.572c-3.18 1.117-1.654 4.307-1.654 4.307-4.611-6.381-8.619-6.328-8.619-6.328-.318 2.047.668 3.988.668 3.988a22.9 19.146 0 0 0-13.422-8.775c-3.435 3.51-.858 9.919-.063 11.674-.923-1.729-2.926-2.5-2.926-2.5-3.403 2.899.509 9.573.509 9.573-2.227-3.563-4.644-2.765-4.644-2.765-2.48 5.85 5.407 13.189 5.407 13.189-4.453-4.281-9.764-1.995-9.764-1.995s2.353 5.69 7.188 6.94c4.834 1.277 9.064 5.904 9.064 5.904-7.347-4.255-10.59-.691-10.59-.691a12.722 10.636 0 0 0 5.31 7.498c-2.003-1.063-3.02-.133-3.02-.133a13.676 11.434 0 0 0 7.219 5.77 2.226 1.861 0 0 0-1.463.612c3.657 3.297 10.177 5.584 13.485 6.648-2.799-.452-3.944 1.196-3.944 1.196s2.8 3.803 14.63 3.245c11.832-.559 20.61 10.503 20.61 10.503a165.386 138.273 0 0 1 6.298 9.998l-4.612-4.946s-18.447-19.996-48.853-5.212a9.542 7.977 0 0 0 8.842 1.436s-5.089 2.66-9.414 3.271c-4.357.638-7.602 4.388-7.602 4.388s3.88 1.595 6.998.957c-2.8 1.223-7.793 3.855-7.856 7.046-.064 4.441-2.1 6.063-2.1 6.063s4.517 2.314 10.56-1.17c-.127.612-.445 1.33-.477 1.782-.064.877.127 1.861-.732 2.526 1.909.585 4.358-.213 6.107-.824a10.814 9.04 0 0 0 5.947-4.494c.86-1.463 1.59-3.058 2.767-4.388l.446-.452c2.035-.798 3.657-.425 3.657-.425s-5.725 3.935-4.802 6.382c0 0 3.435.265 5.534-1.33-1.336 1.25-4.962 5.105-4.167 9.759 0 0 5.534-.08 9.987-4.202 0 0-.89 3.005.064 3.723 0 0 6.679-3.616 7.665-6.78-.127 1.01-.223 3.084 1.59 3.908 0 0 4.77-4.467 6.52-8.695l.318.346 1.972 2.074c-.16-.585.763-.93 1.24-1.223.827-.559 1.686-1.223 2.322-1.968 1.018-1.17 1.495-2.5 1.908-3.909q.191-.904.605-1.914c1.813-.48 3.975 1.17 5.025 2.127q.159.266.636.585c2.544 1.968 5.534 6.594 6.011 7.312a318.05 265.91 0 0 1 7.506 19.465l1.718 5.212c.063.053 3.912 13.375 5.216 19.252-11.164-5.717-23.123-7.951-23.123-7.951l-.222-.053-.477-.186-1.781-.638a34.986 29.25 0 0 1-5.47-2.74 28.624 23.932 0 0 1-8.906-8.801 31.805 26.591 0 0 1-2.258-5.504 12.722 10.636 0 0 0-3.753-4.52 15.903 13.296 0 0 0-5.884-2.766c-.954-.293-4.008-.638-4.39-1.57-.54.878-1.367 1.437-1.717 2.447a6.361 5.318 0 0 0-.254 1.383 11.132 9.307 0 0 0-4.994-1.542q-1.622-.186-2.735-.133l-1.145.053c-.064 1.01 1.081 1.835 1.336 1.994l-.318-.133a9.542 7.977 0 0 0-2.322-.797h-.095a15.903 13.296 0 0 0-2.608-.532c-2.227-.32-4.358-.213-6.33-1.17.541.266.796.665 1.177 1.01 0 0 1.559 2.367 2.227 3.27q.827 1.118 2.099 1.995l-.477-.16-1.845-.797q-1.94-.957-4.007-1.33-2.036-.372-3.753-.398c-2.29 0-3.88.265-3.88.265l.73 1.49a7.951 6.648 0 0 0-3.943-.426l-1.622.16-.636.106q.127 1.117 1.05 1.941.858.851 1.971 1.436c.923.532 1.781.878 2.29 1.064a13.994 11.7 0 0 0-8.492-.612c-2.353.505-3.72 1.25-3.72 1.25.222 1.17 1.335 1.649 2.385 1.835 1.08.16 2.067.053 2.067.053a16.857 14.093 0 0 0-7.729 3.377c-1.208 1.064-1.367 1.781-1.367 1.781 1.145.187 2.226.133 3.117.133.858-.053 1.43-.16 1.43-.16q-1.749.506-3.148 1.197-1.431.692-2.513 1.41a22.264 18.614 0 0 0-3.307 3.005q-1.113 1.462-1.495 2.366l-.35.904c2.131 1.436 5.057 1.463 7.538 1.356q1.845-.133 3.149-.319l.826-.133a4.77 3.989 0 0 0-2.608 1.702q.986.957 2.418 1.303.7.16 1.43.213l.732.053h.7q1.463 0 2.417-.16l1.05-.106q-.636.107-1.113.293l-.795.399a3.18 2.66 0 0 0-.86.877c-.317.532-.19.984-.19.984 2.385 1.41 5.152 1.196 7.538.824q.763-.133 1.463-.319l-.255.293q-.509.797-.731 1.701c-.286.851-.763 3.378-1.845 3.67 1.908.027 3.594.16 5.47-.425q1.782-.612 3.245-1.65c.954-.664 2.162-1.275 2.958-2.02-1.686.957-1.273 3.723-2.036 5.105 2.449-.425 5.311.612 7.697-.106-.223.505-.318 1.197-.795 1.596 1.4-.16 2.926-.24 4.357-.585.954-.266 2.64-.745 3.085-1.516-.095.744.382 1.33.922 1.861.128-1.063 2.386-1.648 3.308-2.02a25.444 21.273 0 0 0 5.089-2.527q.763-.532 1.368-1.303l.986-.532q-.923.798-1.082 1.543c-.19.718 0 1.25 0 1.25s1.018.106 2.704-.639q1.272-.532 3.085-1.861 1.78-1.276 4.039-3.723a12.722 10.636 0 0 1 5.63-3.403 19.083 15.955 0 0 1 6.456-1.038 25.444 21.273 0 0 1 6.87.639c.381.08 3.816.452 5.502.877q-1.622.133-3.435.532a28.624 23.932 0 0 0-10.496 4.52 31.805 26.591 0 0 0-8.587 9.041 36.894 30.846 0 0 0-.445 26.75q.827 1.437 1.749 2.846l.954 1.383a76.332 63.818 0 0 0 3.499 3.989s.668-.612 1.113-1.57a6.361 5.318 0 0 0 .318-2.712l-.064-.16q.636.373 1.4.666c.604.266 2.671.797 2.767 1.409 0-.745.127-1.436.127-2.18 0-.692.19-1.702-.318-2.287.763 0 1.463-.186 2.226-.213-.222-.665.128-1.463 0-2.18a7.315 6.116 0 0 0-1.972-3.165q1.336.16 2.672.186c.7.027 1.654.027 2.258.32.096-1.862-2.13-3.325-3.53-4.468 1.685.213 2.99-.798 4.293-1.595-.731 0-1.59-1.463-1.971-1.888l-.032-.027a6.361 5.318 0 0 0 2.608-.399c-2.29-1.143-1.909-3.616-2.45-5.557q-.444-1.57-1.303-2.979.54.4 1.113.692c2.385 1.25 5.248 1.276 7.697 2.34.063-1.064-.414-2.553-1.272-3.35.636.425 1.463.345 2.099.744-.382-.585-.318-1.33-.573-1.968-.318-.957-.954-1.648-1.495-2.446.573.505 1.432.346 1.94.904-.19-.346.16-.558.319-.878.254-.505.222-1.063.286-1.595a9.542 7.977 0 0 0-.318-2.792c.509.399 1.272.585 1.908.798-.477-.559-.223-.958.16-1.49.603-.877.89-1.595 1.017-2.605q.127-.798.063-1.596c0-.585-.318-1.063-.381-1.622q-.16-.957.127-1.702.954-.824 2.99-1.196c.222 0 6.17 1.755 13.008 5.291 1.4 6.86 2.353 12.79 2.926 17.231.636 5.186 1.845 19.518-1.368 29.41a63.61 53.182 0 0 0-2.671 11.009 76.332 63.818 0 0 0 1.145 19.145c.413 1.915.954 4.52 1.526 7.552l-3.371-6.09s-10.973-20.076-40.329-13.082l-2.862.16c.827.664 1.367 1.382 2.29 1.967q1.272.851 2.735 1.17c-2.1 0-4.262-.16-6.297.346q-2.1.585-4.135 1.383c-1.113.398-2.799 1.037-4.04.718.796.531 1.4 1.143 2.259 1.622.859.478 1.908 1.143 2.862 1.409-1.908.053-3.53 1.276-4.548 2.553q-.477.611-.795 1.25-.318.478-.54 1.063c-1.146 3.83-3.308 4.92-3.308 4.92s3.053 2.526 8.587 1.063l-.636 1.356c-.19.612-.54 1.862-1.209 2.1 1.463.134 2.704.533 4.23.48a12.722 10.636 0 0 0 4.962-1.33q1.209-.505 2.29-1.117.954-.611 1.622-1.33c-.382.984-.954 2.713-2.067 3.298 2.099-.053 4.166-.053 6.233-.399a12.722 10.636 0 0 0-4.134 6.541s4.834.878 9.732-1.967c0 0-1.495 2.473-.859 3.244 0 0 4.517-1.356 6.998-3.271-.032.372-.096.718.095 1.17.445.878.827 1.569.731 2.553 0-.266 1.24-.612 1.59-.798a22.264 18.614 0 0 0 5.821-4.095c.54-.479 1.368-1.143 1.59-1.782-.063.4.764 1.277 1.018 1.65-.064-.586.54-.799 1.081-1.091 1.018-.505 2.131-1.064 2.863-1.862q1.145-1.356 1.908-2.925l.604-.824c2.163-1.383 4.23 1.037 5.09 2.26q.095.266.38.612c1.273 1.595 2.418 4.52 3.054 6.196l.7 4.254s2.799 13.402 1.558 21.406h5.026l-1.845-14.04a314.87 263.25 0 0 0-2.322-15.157c1.018-1.861 2.608-4.999 3.149-5.584l1.145-1.33a15.903 13.296 0 0 1 3.657-2.871 15.903 13.296 0 0 1 14.885-1.543l.732.107.19.08c1.432.478 2.99.478 4.517.265a10.814 9.04 0 0 0 4.452-1.436c.955-.585 2.036-1.435 3.34-1.116-.223-.851-.954-1.862-2.036-2.074 1.018.319 2.545 0 3.499-.346.795-.266 1.908-.904 2.767-.532a4.135 3.457 0 0 0-3.021-2.367 6.997 5.85 0 0 0 4.548-1.994c.222-.213.445-.532.731-.638-.668.266-1.908-.053-2.576-.213-.636-.186-1.272-.532-1.94-.611 1.558.345 3.69-.08 5.184-.506 1.081-.266 2.385-1.276 3.53-1.223-.667-.346-1.399-1.09-2.226-1.33.827-.186 1.559-.132 2.322-.531l1.177-.798c.222-.186.381-.479.636-.638-1.495 0-2.481-.691-3.721-1.197q-.732-.345-1.527-.638.763 0 1.368-.08 1.399-.186 2.29-.611c1.208-.479 1.844-1.117 1.844-1.117a2.226 1.861 0 0 0-1.845-1.383c-.7-.08-1.304.08-1.304.08 2.418-1.09 3.722-2.127 4.453-2.925.732-.798.795-1.383.795-1.383a5.089 4.255 0 0 0-3.18-.106q1.145-.452 2.163-.957a19.083 15.955 0 0 0 3.37-2.048l1.273-1.01a15.903 13.296 0 0 0 2.226-2.314c-1.176-1.542-3.848-2.154-6.202-2.154q-1.78-.026-3.053.186l-.827.133q1.145-.319 1.877-.797l.636-.479.222-.186q-.795-.878-2.258-1.09a9.542 7.977 0 0 0-2.958-.08q.318-.346.573-.745.54-1.09.54-2.313c-.572.638-2.321.266-3.084.213a19.083 15.955 0 0 0-3.117-.08c-1.145.053-2.418.08-3.499.319-.477.106-1.845.532-1.876.984.063-.851-.096-1.729-.191-2.58l-.16-1.063c-.063-.266-.222-.559-.19-.798 0 .479-1.145.904-1.59 1.117l-2.163 1.143c-1.781.984-3.499 1.915-4.77 3.404-.987 1.143-1.464 2.42-2.227 3.67a6.361 5.318 0 0 1-1.113 1.33l.222-.666c.477-2.313-1.208-3.988-1.208-3.988-1.145.532-2.1 1.17-3.276 1.861a15.903 13.296 0 0 0-3.499 3.005l-.381.585c.413-.745.381-1.223.254-1.49a1.075.899 0 0 0-.382-.398 12.722 10.636 0 0 0-4.707 5.877l-.159-.346-.572-.372a9.542 7.977 0 0 0-1.177 1.728 22.264 18.614 0 0 0-2.004 5.558q-.318 1.595-.381 2.659a3.18 2.66 0 0 0-.732-1.41c-.54-.452-1.145-.505-1.145-.505s-.668.718-.954 2.26q-.255 1.197 0 2.952.318 1.782 1.622 4.228.636 1.196.922 2.473.255 1.223.191 2.5a25.444 21.273 0 0 1-.922 4.68 41.347 34.568 0 0 1-1.972 4.573l-.191.399-1.781 2.526a232.177 194.114 0 0 0-3.022-13.162 79.513 66.478 0 0 1-.7-10.052l.223-3.802.096-.904c1.558-13.296 8.078-23.188 19.37-29.437a48.98 40.95 0 0 1 36.448-6.594 54.069 45.205 0 0 1 12.944 3.35c2.004.798 3.34 1.144 3.34 1.144 1.367.531 2.735 1.116 3.69 1.701q.444.266.794.4c1.622.877 6.234 2.658 2.163 5.052-3.817 2.18-5.98 4.786-5.98 4.786q1.655.691 2.863.798c-5.089 1.569-10.591 7.392-10.591 7.392 1.272 1.303 3.626.877 4.707.585-3.403 1.33-6.36 7.233-6.36 7.233.953.638 4.23-.559 4.23-.559-3.913 4.228-3.054 8.642-3.054 8.642a12.722 10.636 0 0 0 6.361-1.861l-.223.691c-.095 1.037.16 2.128-.445 3.058 1.209-.266 2.513-.106 3.753-.425q1.24-.32 2.417-.904c-.954 1.063-2.322 1.861-3.18 3.031a9.542 7.977 0 0 0-1.082 5.132c.032.798.255 1.33.255 1.33 2.703 1.037 5.089-1.596 5.089-1.596-4.358 6.25-.318 9.945-.318 9.945s1.017-1.25 4.134-2.154c.986-.159 2.036-.212 3.022-.505q1.908-.505 3.435-1.489c.731-.478 2.226-1.462 2.162-2.366.827 1.116 1.877 1.834 3.117 2.659 0-.506 1.209-1.356 1.59-1.809q.955-1.116 1.623-2.393c.954-1.595 1.494-3.536 1.494-5.318.636.718 2.354 1.782 1.463 3.031.191-.345 1.114-.531 1.527-.797q1.018-.559 1.686-1.41c1.336-1.648 3.975-5.53 2.067-15.103"></path><path fill="#f4ddd6" d="M249.5 5.502C114.546 5.502 5.152 98.831 5.152 213.965v143.071C5.152 516.392 171.704 565.5 249.5 565.5c134.954 0 244.348-93.329 244.348-208.463V213.965C493.848 54.609 327.296 5.502 249.5 5.502m202.848 196.479H48.367a20.072 17.124 0 0 1-19.908-19.109C40.344 93.017 135.095 22.995 250.246 22.995c67.67 0 208.887 38.28 222.054 160.259a20.072 17.124 0 0 1-19.952 18.727" paint-order="stroke"></path><g transform="translate(249.24 368)"><filter id="a" width="145.2%" height="146.22%" x="-22.6%" y="-23.11%"><feGaussianBlur in="SourceAlpha" stdDeviation="3"></feGaussianBlur><feOffset dx="3" dy="3" result="oBlur"></feOffset><feFlood flood-color="#FFA2A2" flood-opacity="1"></feFlood><feComposite in2="oBlur" operator="in"></feComposite><feMerge><feMergeNode></feMergeNode><feMergeNode in="SourceGraphic"></feMergeNode></feMerge></filter><g filter="url(#a)" paint-order="stroke"><path fill="none" stroke="#ffb8bc" stroke-width="3" d="m-58.01-102.76-.99-1q9.37-9.94 22.72-9.94 7.66 0 13.49 2.77 5.82 2.77 9.16 7.74 3.33 4.97 3.33 11.36 0 8.52-5.04 15.05-5.04 6.54-13.91 10.23-8.88 3.69-20.52 3.69-13.35 0-23.72-4.47-10.36-4.48-16.33-12.36-5.96-7.88-5.96-17.82 0-9.8 4.68-18.1 4.69-8.31 13.14-14.56t19.81-9.72q11.36-3.48 24.56-3.48 14.77 0 27.41 3.97 12.64 3.98 22.15 11.08 9.52 7.1 14.84 16.54 5.33 9.44 5.33 20.38 0 9.37-3.62 17.68-3.63 8.3-10.02 14.77-6.39 6.46-14.69 10.08-8.31 3.62-17.68 3.62-6.96 0-12.5-2.42l.57-1.27q2.41.99 5.4 1.63 2.98.64 6.53.64 9.09 0 17.11-3.55t14.2-9.73q6.18-6.18 9.73-14.27 3.55-8.09 3.55-17.18 0-10.65-5.26-19.81-5.25-9.16-14.62-16.05-9.38-6.88-21.73-10.79-12.35-3.9-26.7-3.9-12.92 0-23.99 3.4-11.08 3.41-19.32 9.45-8.23 6.03-12.85 14.13-4.61 8.09-4.61 17.46 0 9.52 5.82 17.04 5.82 7.53 15.9 11.86 10.09 4.33 22.87 4.33 11.21 0 19.81-3.48 8.59-3.48 13.41-9.73 4.83-6.24 4.83-14.34 0-5.96-3.19-10.58-3.2-4.61-8.74-7.24-5.53-2.63-12.63-2.63-12.78 0-21.73 9.52Zm76.96 8.66q3.84-4.69 8.6-8.59 4.75-3.91 9.72-6.75h7.39q-3.41 1-7.88 3.55-4.48 2.56-8.81 5.9-4.33 3.33-7.74 7.03-6.96 7.66-12.85 17.32T-4.19-55.76q-5.68 10.22-11.93 19.67-6.25 9.44-13.92 16.82-7.1 6.96-16.75 12-9.66 5.04-20.73 7.74-11.08 2.7-22.44 2.7-16.05 0-27.83-4.83-11.79-4.83-18.18-13.63-6.39-8.8-6.39-20.87 0-8.81 4.4-16.48 4.41-7.66 12.29-13.56 7.88-5.89 18.24-9.16 10.37-3.26 22.16-3.26 11.64 0 20.16 3.05t13.21 8.66q4.68 5.61 4.68 13.28 0 6.67-3.48 12.5-3.48 5.82-9.58 10.29-6.11 4.47-14.13 6.96-8.02 2.48-17.25 2.48-11.51 0-18.25-4.18-6.75-4.19-6.75-11.15 0-6.11 5.68-11.01 5.68-4.9 15.13-7.81 9.44-2.91 20.66-2.91 11.93 0 22.08 2.84 10.15 2.84 17.61 8.03 7.45 5.18 11.57 12.21 4.12 7.03 4.12 15.26 0 10.37-5.26 19.39-5.25 9.01-14.76 15.76-9.52 6.74-22.08 10.51-12.57 3.76-27.34 3.76-18.18 0-33.3-4.83-15.12-4.83-26.13-13.7-11-8.88-17.04-20.95-6.03-12.07-6.03-26.69 0-14.49 6.03-26.63 6.04-12.14 17.11-21.01 11.08-8.88 26.2-13.78 15.13-4.9 33.16-4.9 12.64 0 23.43 2.84t18.6 8.03q7.81 5.18 11.22 11.99l-1.42.43q-3.27-6.53-10.79-11.43-7.53-4.9-18.04-7.67-10.5-2.77-23-2.77-17.75 0-32.59 4.76-14.84 4.76-25.7 13.42t-16.83 20.52q-5.96 11.85-5.96 26.2 0 14.2 5.96 26.12 5.97 11.93 16.76 20.52 10.79 8.59 25.63 13.35t32.73 4.76q14.34 0 26.7-3.62Q-50.2 20.64-40.9 14.1q9.3-6.53 14.49-15.26 5.18-8.73 5.18-18.96 0-10.65-7.03-18.95-7.03-8.31-19.24-13.07-12.21-4.76-27.83-4.76-10.94 0-20.03 2.77-9.08 2.77-14.48 7.32-5.4 4.54-5.4 9.94 0 6.53 6.39 10.29 6.39 3.76 17.19 3.76 8.8 0 16.54-2.41 7.74-2.41 13.7-6.67 5.97-4.26 9.37-9.87 3.41-5.61 3.41-11.86 0-7.1-4.54-12.42-4.55-5.33-12.78-8.24-8.24-2.91-19.31-2.91-11.36 0-21.45 3.19-10.08 3.2-17.75 8.88-7.66 5.68-12.07 13.13-4.4 7.46-4.4 15.84 0 15.19 12.92 23.71 12.93 8.52 35.93 8.52 12.21 0 21.94-2.98t18.81-9.44q9.09-6.47 19.03-16.97 9.94-10.51 22.3-25.56Q2.34-73.94 18.95-94.1ZM.07-6.06q-1.71 0-2.91-1.21-1.21-1.2-1.21-3.05 0-5.4 6.82-14.84 6.81-9.44 21.86-25.2h11.08q-1.85.99-4.47 3.05-2.63 2.06-5.9 5.04-10.08 9.8-16.11 16.19Q3.19-19.69.57-15.86q-2.63 3.84-2.63 6.11 0 2.84 2.27 2.84 2.56 0 7.31-3.05 4.76-3.06 10.51-8.24t11.15-11.29l1.7-1.85h1.42l-1.28 1.42q-6.1 6.96-12.14 12.36-6.03 5.39-11 8.45Q2.91-6.06.07-6.06Zm59.64-79.66q1.56 0 1.56 1.13 0 1.85-2.34 4.41-2.35 2.55-5.33 4.47t-5.25 1.92q-1.42 0-1.42-1.14 0-1.7 2.34-4.26 2.34-2.56 5.4-4.54 3.05-1.99 5.04-1.99Z"></path><path fill="none" stroke="#ffb8bc" stroke-width="3" d="M32.59-6.06q-3.55 0-5.75-2.84-2.21-2.84-2.21-7.24 0-4.55 2.63-9.52t7.1-9.65q4.47-4.69 10.01-8.45 5.54-3.76 11.43-6.04 5.9-2.27 11.29-2.27 6.96 0 6.96 4.26 0 2.27-2.48 5.82-2.49 3.55-5.76 5.97h-6.53q2.84-1.28 5.75-3.69 2.91-2.42 4.97-4.9 2.06-2.49 2.06-3.91 0-2.41-3.83-2.41-3.69 0-8.81 2.91-5.11 2.91-10.65 7.6-5.53 4.68-10.22 10.15-4.69 5.47-7.67 10.58-2.98 5.11-2.98 8.8 0 3.98 4.97 3.98 5.25 0 11.93-2.98 6.67-2.99 13.56-8.1 6.89-5.11 12.57-11.5l1.7-1.85h1.42l-1.28 1.42q-6.1 6.96-13.27 12.36-7.18 5.39-14.13 8.45-6.96 3.05-12.78 3.05Z"></path><path fill="none" stroke="#ffb8bc" stroke-width="3" d="M70.07-21.25h-1.56q17.33-17.19 28.12-25.42 10.79-8.24 16.04-8.24 3.55 0 5.54 1.56 1.99 1.57 1.99 4.41 0 4.97-5.4 8.59-5.39 3.62-13.06 3.62-2.27 0-4.76-.57-2.48-.57-3.33-1.42L92.94-40q.85 1.42 4.11 1.42 4.41 0 8.52-1.77 4.12-1.78 6.82-4.55 2.7-2.77 2.7-5.61 0-3.12-3.55-3.12-2.13 0-6.53 2.56-4.41 2.55-10.16 7.03-5.75 4.47-12.14 10.29-6.39 5.82-12.64 12.5zM86.83-6.91q4.26 0 9.73-3.05 5.46-3.06 11.36-8.24 5.89-5.18 11.43-11.29l1.7-1.85h1.42l-1.28 1.42q-5.53 6.39-11.85 11.79-6.32 5.4-12.21 8.73-5.9 3.34-10.3 3.34-2.7 0-5.04-2.2t-2.34-5.89q0-3.41 2.13-6.18 2.13-2.77 4.9-5.18 2.76-2.42 4.89-4.83 2.13-2.42 2.13-5.11 0-1.42-.35-2.56-.36-1.14-1.07-2.13l.15-.85q1.84 1.7 2.13 3.05.28 1.35.28 2.77 0 3.69-1.7 6.82-1.71 3.12-3.98 6.03t-3.98 5.89q-1.7 2.99-1.7 6.25 0 2.13 1.35 2.7 1.35.57 2.2.57Zm46.15-86.76-32.66 36.49-2.7-2.98 62.48-71.29h11.65q-2.99 1.42-7.81 5.68-4.83 4.26-10.44 9.94-5.61 5.68-11.01 11.58-5.39 5.89-9.51 10.58zM97.62-60.16l2.7 2.98-27.69 30.96h1.14l-3.7 4.97L57.72-7.34h-9.66q5.97-4.68 12.43-11.14 6.46-6.47 12.14-13zM-49.63 48.23q-15.48 0-25.21-4.9-9.72-4.9-14.34-12.64-4.61-7.74-4.61-16.12 0-8.09 4.26-15.9 4.26-7.81 12.42-14.13 8.17-6.32 20.17-10.08 11.99-3.76 27.33-3.76 8.66 0 17.18 2.48 8.52 2.49 16.69 6.39 8.16 3.91 15.62 8.24 7.45 4.33 13.77 8.16 6.32 3.84 11.22 6.25t8.02 2.41V6.2q-3.97.14-10.22-3.2-6.25-3.34-14.2-8.24-7.95-4.89-17.25-9.79-9.31-4.9-19.32-8.24t-20.23-3.34q-13.35 0-24.92 3.2-11.58 3.19-20.24 9.02-8.66 5.82-13.49 13.56t-4.83 16.68q0 9.37 5.26 16.33 5.25 6.96 14.84 10.86 9.58 3.91 22.22 3.91 10.51 0 19.1-3.76 8.59-3.77 13.7-10.09 5.11-6.31 5.11-13.98 0-5.4-2.62-9.59-2.63-4.19-7.6-6.03l.85-1.14q5.26 2.27 8.1 6.6 2.84 4.34 2.84 10.16 0 8.09-5.26 14.69-5.25 6.61-14.27 10.51-9.02 3.91-20.09 3.91ZM127.3 6.91q-10.08.85-21.23 5.39-11.15 4.55-22.51 11.65-11.36 7.1-22.15 15.76T41.25 57.46q-9.37 9.09-16.47 17.53-7.1 8.45-11.08 15.13-3.98 6.67-3.98 10.51 0 .28.15.28.42 0 1.77-1.85 1.35-1.84 2.98-4.33 1.64-2.48 3.06-4.61 4.82-7.39 7.24-15.84 2.41-8.44 4.19-17.39 1.77-8.95 4.33-17.96 2.55-9.02 7.45-17.61T54.45 5.2l1.71.43q-4.55 2.98-8.02 9.44-3.48 6.46-6.47 15.27-2.98 8.8-5.89 18.6-2.91 9.8-6.25 19.52-3.33 9.73-7.52 18.18-4.19 8.45-9.73 14.27-3.55 3.55-4.54 3.55-1 0-1-.99 0-4.26 4.05-11.44 4.05-7.17 11.29-16.04 7.24-8.88 16.83-18.32 9.58-9.44 20.66-18.39 11.07-8.94 22.72-16.26 11.64-7.31 23.14-12 11.5-4.68 21.87-5.53 16.05-1.71 23.64-2.99 7.6-1.27 7.6-3.97 0-.71-1.49-1.35-1.49-.64-3.91-.64-9.79 0-19.95 4.69-10.15 4.68-20.09 12.28T94.07 29.77q-9.09 8.66-17.04 16.75-7.67 8.24-14.98 17.54-7.31 9.3-13.06 18.82-5.75 9.51-9.16 18.6-3.41 9.09-3.41 17.04 0 7.38 3.2 11.71 3.19 4.33 8.73 4.33 5.54 0 10.08-3.69l.43 1q-4.41 4.11-10.65 4.11-7.1 0-11.72-5.61-4.61-5.6-4.61-14.27 0-7.52 3.55-16.11t9.23-17.33q5.68-8.73 12.28-16.9 6.6-8.16 12.85-14.91 6.25-6.74 10.79-11.14 7.24-6.82 15.91-14.49 8.66-7.66 18.1-14.55 9.44-6.89 19.03-11.22 9.58-4.33 18.67-4.33 4.4 0 7.32.85 2.91.85 2.91 2.42 0 2.13-3.13 3.55-3.12 1.42-10.79 2.55-7.67 1.14-21.3 2.42ZM32.59 19.97q6.53-6.11 11.07-9.59 4.55-3.47 8.81-5.75h7.24q-3.41 1-8.1 3.55-4.68 2.56-9.37 5.9-4.68 3.33-8.52 7.03-7.52 7.95-13.77 17.67-6.25 9.73-12.21 20.03Q1.77 69.1-4.9 78.97q-6.68 9.87-15.05 18.11-10.37 10.08-24.5 15.19-14.13 5.11-31.17 5.11-13.77 0-25.13-4.33t-18.11-13.21q-6.74-8.87-6.74-22.22 0-9.23 4.4-17.11 4.4-7.88 12.35-13.77 7.96-5.9 18.68-9.16 10.72-3.27 23.36-3.27 20.3 0 35.07 6.46t22.79 18.32Q-.93 70.95-.93 87.14q0 12.35-5.68 22.64-5.68 10.3-16.11 17.83-10.44 7.52-24.57 11.64-14.13 4.12-31.17 4.12-16.75 0-31.1-5.04-14.34-5.04-25.06-14.06-10.72-9.02-16.68-21.02-5.97-12-5.97-26.05 0-13.78 6.39-25.78 6.39-12 17.75-21.08 11.36-9.09 26.27-14.2 14.91-5.12 32.09-5.12 16.76 0 29.33 4.97 12.56 4.97 19.66 13.71 7.1 8.73 7.1 20.37 0 8.95-4.26 16.69-4.26 7.74-11.85 13.56-7.6 5.82-17.68 9.09-10.08 3.26-21.87 3.26-12.92 0-20.23-4.11-7.32-4.12-7.32-11.22 0-5.97 4.05-10.51t11.29-7.03q7.24-2.48 16.75-2.48 12.22 0 19.74 5.82l-.99 1.13q-6.82-5.53-18.75-5.53-9.08 0-15.97 2.34-6.89 2.34-10.79 6.53-3.91 4.19-3.91 9.73 0 6.53 7.03 10.22 7.03 3.69 19.1 3.69 11.36 0 21.23-3.12 9.87-3.12 17.25-8.73 7.39-5.61 11.58-13.14 4.18-7.52 4.18-16.19 0-11.21-6.88-19.66-6.89-8.45-19.17-13.21-12.29-4.76-28.62-4.76-16.75 0-31.52 5.04-14.77 5.05-25.84 13.92-11.08 8.88-17.4 20.59-6.32 11.72-6.32 25.21 0 13.63 5.9 25.41 5.89 11.79 16.47 20.66 10.58 8.88 24.63 13.78 14.06 4.9 30.39 4.9 16.62 0 30.6-4.05 13.99-4.05 24.14-11.36 10.16-7.31 15.77-17.32 5.6-10.01 5.6-22.08 0-15.91-7.88-27.41t-22.29-17.75q-14.41-6.25-34.29-6.25-12.36 0-22.79 3.13-10.44 3.12-18.25 8.87-7.81 5.75-12.07 13.35-4.26 7.6-4.26 16.54 0 10.79 5.96 18.04 5.97 7.24 16.33 10.86 10.37 3.62 23.72 3.62 13.2 0 24.78-4.97 11.57-4.97 21.65-13.21 10.08-8.23 18.96-18.24 8.87-10.01 16.75-20.17 7.88-10.15 14.98-19.03 7.1-8.87 13.64-14.55Z"></path><path fill="none" stroke="#ffb8bc" stroke-width="3" d="M71.21 107.02q4.69 0 10.93-2.99 6.25-2.98 12.93-8.09 6.67-5.11 12.35-11.5l1.7-1.85h1.42l-1.27 1.42q-5.97 6.68-13 12.14-7.03 5.47-13.63 8.59-6.6 3.13-11.43 3.13-3.69 0-5.89-2.63-2.2-2.63-2.2-7.17t2.69-9.51q2.7-4.97 7.18-9.73 4.47-4.76 10.08-8.59 5.61-3.84 11.5-6.11 5.89-2.27 11.29-2.27 2.41 0 3.83.99 1.42 1 1.42 2.56 0 2.98-3.33 6.25-3.34 3.26-8.6 6.1-5.25 2.84-11.21 4.69Q82 84.3 76.61 84.3l1.27-1.28q5.12-.29 10.58-1.99 5.47-1.7 10.16-4.4 4.68-2.7 7.66-5.68 2.99-2.98 2.99-5.54 0-2.27-2.99-2.27-3.4 0-8.44 2.98-5.05 2.98-10.44 7.67-5.4 4.68-10.08 10.15-4.69 5.47-7.6 10.51-2.91 5.04-2.91 8.59 0 3.98 4.4 3.98Z"></path><path fill="#fd597b" d="m-58.01-102.76-.99-1q9.37-9.94 22.72-9.94 7.66 0 13.49 2.77 5.82 2.77 9.16 7.74 3.33 4.97 3.33 11.36 0 8.52-5.04 15.05-5.04 6.54-13.91 10.23-8.88 3.69-20.52 3.69-13.35 0-23.72-4.47-10.36-4.48-16.33-12.36-5.96-7.88-5.96-17.82 0-9.8 4.68-18.1 4.69-8.31 13.14-14.56t19.81-9.72q11.36-3.48 24.56-3.48 14.77 0 27.41 3.97 12.64 3.98 22.15 11.08 9.52 7.1 14.84 16.54 5.33 9.44 5.33 20.38 0 9.37-3.62 17.68-3.63 8.3-10.02 14.77-6.39 6.46-14.69 10.08-8.31 3.62-17.68 3.62-6.96 0-12.5-2.42l.57-1.27q2.41.99 5.4 1.63 2.98.64 6.53.64 9.09 0 17.11-3.55t14.2-9.73q6.18-6.18 9.73-14.27 3.55-8.09 3.55-17.18 0-10.65-5.26-19.81-5.25-9.16-14.62-16.05-9.38-6.88-21.73-10.79-12.35-3.9-26.7-3.9-12.92 0-23.99 3.4-11.08 3.41-19.32 9.45-8.23 6.03-12.85 14.13-4.61 8.09-4.61 17.46 0 9.52 5.82 17.04 5.82 7.53 15.9 11.86 10.09 4.33 22.87 4.33 11.21 0 19.81-3.48 8.59-3.48 13.41-9.73 4.83-6.24 4.83-14.34 0-5.96-3.19-10.58-3.2-4.61-8.74-7.24-5.53-2.63-12.63-2.63-12.78 0-21.73 9.52m76.96 8.66q3.84-4.69 8.6-8.59 4.75-3.91 9.72-6.75h7.39q-3.41 1-7.88 3.55-4.48 2.56-8.81 5.9-4.33 3.33-7.74 7.03-6.96 7.66-12.85 17.32T-4.19-55.76q-5.68 10.22-11.93 19.67-6.25 9.44-13.92 16.82-7.1 6.96-16.75 12-9.66 5.04-20.73 7.74-11.08 2.7-22.44 2.7-16.05 0-27.83-4.83-11.79-4.83-18.18-13.63-6.39-8.8-6.39-20.87 0-8.81 4.4-16.48 4.41-7.66 12.29-13.56 7.88-5.89 18.24-9.16 10.37-3.26 22.16-3.26 11.64 0 20.16 3.05t13.21 8.66q4.68 5.61 4.68 13.28 0 6.67-3.48 12.5-3.48 5.82-9.58 10.29-6.11 4.47-14.13 6.96-8.02 2.48-17.25 2.48-11.51 0-18.25-4.18-6.75-4.19-6.75-11.15 0-6.11 5.68-11.01 5.68-4.9 15.13-7.81 9.44-2.91 20.66-2.91 11.93 0 22.08 2.84 10.15 2.84 17.61 8.03 7.45 5.18 11.57 12.21 4.12 7.03 4.12 15.26 0 10.37-5.26 19.39-5.25 9.01-14.76 15.76-9.52 6.74-22.08 10.51-12.57 3.76-27.34 3.76-18.18 0-33.3-4.83-15.12-4.83-26.13-13.7-11-8.88-17.04-20.95-6.03-12.07-6.03-26.69 0-14.49 6.03-26.63 6.04-12.14 17.11-21.01 11.08-8.88 26.2-13.78 15.13-4.9 33.16-4.9 12.64 0 23.43 2.84t18.6 8.03q7.81 5.18 11.22 11.99l-1.42.43q-3.27-6.53-10.79-11.43-7.53-4.9-18.04-7.67-10.5-2.77-23-2.77-17.75 0-32.59 4.76-14.84 4.76-25.7 13.42t-16.83 20.52q-5.96 11.85-5.96 26.2 0 14.2 5.96 26.12 5.97 11.93 16.76 20.52 10.79 8.59 25.63 13.35t32.73 4.76q14.34 0 26.7-3.62Q-50.2 20.64-40.9 14.1q9.3-6.53 14.49-15.26 5.18-8.73 5.18-18.96 0-10.65-7.03-18.95-7.03-8.31-19.24-13.07-12.21-4.76-27.83-4.76-10.94 0-20.03 2.77-9.08 2.77-14.48 7.32-5.4 4.54-5.4 9.94 0 6.53 6.39 10.29 6.39 3.76 17.19 3.76 8.8 0 16.54-2.41 7.74-2.41 13.7-6.67 5.97-4.26 9.37-9.87 3.41-5.61 3.41-11.86 0-7.1-4.54-12.42-4.55-5.33-12.78-8.24-8.24-2.91-19.31-2.91-11.36 0-21.45 3.19-10.08 3.2-17.75 8.88-7.66 5.68-12.07 13.13-4.4 7.46-4.4 15.84 0 15.19 12.92 23.71 12.93 8.52 35.93 8.52 12.21 0 21.94-2.98t18.81-9.44q9.09-6.47 19.03-16.97 9.94-10.51 22.3-25.56Q2.34-73.94 18.95-94.1M.07-6.06q-1.71 0-2.91-1.21-1.21-1.2-1.21-3.05 0-5.4 6.82-14.84 6.81-9.44 21.86-25.2h11.08q-1.85.99-4.47 3.05-2.63 2.06-5.9 5.04-10.08 9.8-16.11 16.19Q3.19-19.69.57-15.86q-2.63 3.84-2.63 6.11 0 2.84 2.27 2.84 2.56 0 7.31-3.05 4.76-3.06 10.51-8.24t11.15-11.29l1.7-1.85h1.42l-1.28 1.42q-6.1 6.96-12.14 12.36-6.03 5.39-11 8.45Q2.91-6.06.07-6.06m59.64-79.66q1.56 0 1.56 1.13 0 1.85-2.34 4.41-2.35 2.55-5.33 4.47t-5.25 1.92q-1.42 0-1.42-1.14 0-1.7 2.34-4.26 2.34-2.56 5.4-4.54 3.05-1.99 5.04-1.99"></path><path fill="#fd597b" d="M32.59-6.06q-3.55 0-5.75-2.84-2.21-2.84-2.21-7.24 0-4.55 2.63-9.52t7.1-9.65q4.47-4.69 10.01-8.45 5.54-3.76 11.43-6.04 5.9-2.27 11.29-2.27 6.96 0 6.96 4.26 0 2.27-2.48 5.82-2.49 3.55-5.76 5.97h-6.53q2.84-1.28 5.75-3.69 2.91-2.42 4.97-4.9 2.06-2.49 2.06-3.91 0-2.41-3.83-2.41-3.69 0-8.81 2.91-5.11 2.91-10.65 7.6-5.53 4.68-10.22 10.15-4.69 5.47-7.67 10.58-2.98 5.11-2.98 8.8 0 3.98 4.97 3.98 5.25 0 11.93-2.98 6.67-2.99 13.56-8.1 6.89-5.11 12.57-11.5l1.7-1.85h1.42l-1.28 1.42q-6.1 6.96-13.27 12.36-7.18 5.39-14.13 8.45-6.96 3.05-12.78 3.05"></path><path fill="#fd597b" d="M70.07-21.25h-1.56q17.33-17.19 28.12-25.42 10.79-8.24 16.04-8.24 3.55 0 5.54 1.56 1.99 1.57 1.99 4.41 0 4.97-5.4 8.59-5.39 3.62-13.06 3.62-2.27 0-4.76-.57-2.48-.57-3.33-1.42L92.94-40q.85 1.42 4.11 1.42 4.41 0 8.52-1.77 4.12-1.78 6.82-4.55 2.7-2.77 2.7-5.61 0-3.12-3.55-3.12-2.13 0-6.53 2.56-4.41 2.55-10.16 7.03-5.75 4.47-12.14 10.29-6.39 5.82-12.64 12.5M86.83-6.91q4.26 0 9.73-3.05 5.46-3.06 11.36-8.24 5.89-5.18 11.43-11.29l1.7-1.85h1.42l-1.28 1.42q-5.53 6.39-11.85 11.79-6.32 5.4-12.21 8.73-5.9 3.34-10.3 3.34-2.7 0-5.04-2.2t-2.34-5.89q0-3.41 2.13-6.18 2.13-2.77 4.9-5.18 2.76-2.42 4.89-4.83 2.13-2.42 2.13-5.11 0-1.42-.35-2.56-.36-1.14-1.07-2.13l.15-.85q1.84 1.7 2.13 3.05.28 1.35.28 2.77 0 3.69-1.7 6.82-1.71 3.12-3.98 6.03t-3.98 5.89q-1.7 2.99-1.7 6.25 0 2.13 1.35 2.7 1.35.57 2.2.57m46.15-86.76-32.66 36.49-2.7-2.98 62.48-71.29h11.65q-2.99 1.42-7.81 5.68-4.83 4.26-10.44 9.94-5.61 5.68-11.01 11.58-5.39 5.89-9.51 10.58M97.62-60.16l2.7 2.98-27.69 30.96h1.14l-3.7 4.97L57.72-7.34h-9.66q5.97-4.68 12.43-11.14 6.46-6.47 12.14-13zM-49.63 48.23q-15.48 0-25.21-4.9-9.72-4.9-14.34-12.64-4.61-7.74-4.61-16.12 0-8.09 4.26-15.9 4.26-7.81 12.42-14.13 8.17-6.32 20.17-10.08 11.99-3.76 27.33-3.76 8.66 0 17.18 2.48 8.52 2.49 16.69 6.39 8.16 3.91 15.62 8.24 7.45 4.33 13.77 8.16 6.32 3.84 11.22 6.25t8.02 2.41V6.2q-3.97.14-10.22-3.2-6.25-3.34-14.2-8.24-7.95-4.89-17.25-9.79-9.31-4.9-19.32-8.24t-20.23-3.34q-13.35 0-24.92 3.2-11.58 3.19-20.24 9.02-8.66 5.82-13.49 13.56t-4.83 16.68q0 9.37 5.26 16.33 5.25 6.96 14.84 10.86 9.58 3.91 22.22 3.91 10.51 0 19.1-3.76 8.59-3.77 13.7-10.09 5.11-6.31 5.11-13.98 0-5.4-2.62-9.59-2.63-4.19-7.6-6.03l.85-1.14q5.26 2.27 8.1 6.6 2.84 4.34 2.84 10.16 0 8.09-5.26 14.69-5.25 6.61-14.27 10.51-9.02 3.91-20.09 3.91M127.3 6.91q-10.08.85-21.23 5.39-11.15 4.55-22.51 11.65-11.36 7.1-22.15 15.76T41.25 57.46q-9.37 9.09-16.47 17.53-7.1 8.45-11.08 15.13-3.98 6.67-3.98 10.51 0 .28.15.28.42 0 1.77-1.85 1.35-1.84 2.98-4.33 1.64-2.48 3.06-4.61 4.82-7.39 7.24-15.84 2.41-8.44 4.19-17.39 1.77-8.95 4.33-17.96 2.55-9.02 7.45-17.61T54.45 5.2l1.71.43q-4.55 2.98-8.02 9.44-3.48 6.46-6.47 15.27-2.98 8.8-5.89 18.6-2.91 9.8-6.25 19.52-3.33 9.73-7.52 18.18-4.19 8.45-9.73 14.27-3.55 3.55-4.54 3.55-1 0-1-.99 0-4.26 4.05-11.44 4.05-7.17 11.29-16.04 7.24-8.88 16.83-18.32 9.58-9.44 20.66-18.39 11.07-8.94 22.72-16.26 11.64-7.31 23.14-12 11.5-4.68 21.87-5.53 16.05-1.71 23.64-2.99 7.6-1.27 7.6-3.97 0-.71-1.49-1.35-1.49-.64-3.91-.64-9.79 0-19.95 4.69-10.15 4.68-20.09 12.28T94.07 29.77q-9.09 8.66-17.04 16.75-7.67 8.24-14.98 17.54-7.31 9.3-13.06 18.82-5.75 9.51-9.16 18.6-3.41 9.09-3.41 17.04 0 7.38 3.2 11.71 3.19 4.33 8.73 4.33 5.54 0 10.08-3.69l.43 1q-4.41 4.11-10.65 4.11-7.1 0-11.72-5.61-4.61-5.6-4.61-14.27 0-7.52 3.55-16.11t9.23-17.33q5.68-8.73 12.28-16.9 6.6-8.16 12.85-14.91 6.25-6.74 10.79-11.14 7.24-6.82 15.91-14.49 8.66-7.66 18.1-14.55 9.44-6.89 19.03-11.22 9.58-4.33 18.67-4.33 4.4 0 7.32.85 2.91.85 2.91 2.42 0 2.13-3.13 3.55-3.12 1.42-10.79 2.55-7.67 1.14-21.3 2.42M32.59 19.97q6.53-6.11 11.07-9.59 4.55-3.47 8.81-5.75h7.24q-3.41 1-8.1 3.55-4.68 2.56-9.37 5.9-4.68 3.33-8.52 7.03-7.52 7.95-13.77 17.67-6.25 9.73-12.21 20.03Q1.77 69.1-4.9 78.97q-6.68 9.87-15.05 18.11-10.37 10.08-24.5 15.19-14.13 5.11-31.17 5.11-13.77 0-25.13-4.33t-18.11-13.21q-6.74-8.87-6.74-22.22 0-9.23 4.4-17.11 4.4-7.88 12.35-13.77 7.96-5.9 18.68-9.16 10.72-3.27 23.36-3.27 20.3 0 35.07 6.46t22.79 18.32Q-.93 70.95-.93 87.14q0 12.35-5.68 22.64-5.68 10.3-16.11 17.83-10.44 7.52-24.57 11.64-14.13 4.12-31.17 4.12-16.75 0-31.1-5.04-14.34-5.04-25.06-14.06-10.72-9.02-16.68-21.02-5.97-12-5.97-26.05 0-13.78 6.39-25.78 6.39-12 17.75-21.08 11.36-9.09 26.27-14.2 14.91-5.12 32.09-5.12 16.76 0 29.33 4.97 12.56 4.97 19.66 13.71 7.1 8.73 7.1 20.37 0 8.95-4.26 16.69-4.26 7.74-11.85 13.56-7.6 5.82-17.68 9.09-10.08 3.26-21.87 3.26-12.92 0-20.23-4.11-7.32-4.12-7.32-11.22 0-5.97 4.05-10.51t11.29-7.03q7.24-2.48 16.75-2.48 12.22 0 19.74 5.82l-.99 1.13q-6.82-5.53-18.75-5.53-9.08 0-15.97 2.34-6.89 2.34-10.79 6.53-3.91 4.19-3.91 9.73 0 6.53 7.03 10.22 7.03 3.69 19.1 3.69 11.36 0 21.23-3.12 9.87-3.12 17.25-8.73 7.39-5.61 11.58-13.14 4.18-7.52 4.18-16.19 0-11.21-6.88-19.66-6.89-8.45-19.17-13.21-12.29-4.76-28.62-4.76-16.75 0-31.52 5.04-14.77 5.05-25.84 13.92-11.08 8.88-17.4 20.59-6.32 11.72-6.32 25.21 0 13.63 5.9 25.41 5.89 11.79 16.47 20.66 10.58 8.88 24.63 13.78 14.06 4.9 30.39 4.9 16.62 0 30.6-4.05 13.99-4.05 24.14-11.36 10.16-7.31 15.77-17.32 5.6-10.01 5.6-22.08 0-15.91-7.88-27.41t-22.29-17.75q-14.41-6.25-34.29-6.25-12.36 0-22.79 3.13-10.44 3.12-18.25 8.87-7.81 5.75-12.07 13.35-4.26 7.6-4.26 16.54 0 10.79 5.96 18.04 5.97 7.24 16.33 10.86 10.37 3.62 23.72 3.62 13.2 0 24.78-4.97 11.57-4.97 21.65-13.21 10.08-8.23 18.96-18.24 8.87-10.01 16.75-20.17 7.88-10.15 14.98-19.03 7.1-8.87 13.64-14.55"></path><path fill="#fd597b" d="M71.21 107.02q4.69 0 10.93-2.99 6.25-2.98 12.93-8.09 6.67-5.11 12.35-11.5l1.7-1.85h1.42l-1.27 1.42q-5.97 6.68-13 12.14-7.03 5.47-13.63 8.59-6.6 3.13-11.43 3.13-3.69 0-5.89-2.63-2.2-2.63-2.2-7.17t2.69-9.51q2.7-4.97 7.18-9.73 4.47-4.76 10.08-8.59 5.61-3.84 11.5-6.11 5.89-2.27 11.29-2.27 2.41 0 3.83.99 1.42 1 1.42 2.56 0 2.98-3.33 6.25-3.34 3.26-8.6 6.1-5.25 2.84-11.21 4.69Q82 84.3 76.61 84.3l1.27-1.28q5.12-.29 10.58-1.99 5.47-1.7 10.16-4.4 4.68-2.7 7.66-5.68 2.99-2.98 2.99-5.54 0-2.27-2.99-2.27-3.4 0-8.44 2.98-5.05 2.98-10.44 7.67-5.4 4.68-10.08 10.15-4.69 5.47-7.6 10.51-2.91 5.04-2.91 8.59 0 3.98 4.4 3.98"></path></g></g></svg></svg>